<?xml version="1.0" standalone="no"?>
<!DOCTYPE svg PUBLIC "-//W3C//DTD SVG 1.1//EN" "http://www.w3.org/Graphics/SVG/1.1/DTD/svg11.dtd">
<svg xmlns="http://www.w3.org/2000/svg">
<metadata>Generated by Fontastic.me</metadata>
<defs>
<font id="my-fonts-fadt" horiz-adv-x="512">
<font-face font-family="my-fonts-fadt" units-per-em="512" ascent="480" descent="-32"/>
<missing-glyph horiz-adv-x="512" />

<glyph glyph-name="home" unicode="&#97;" d="M421 229l0-138c0-5-2-9-6-12-3-4-8-6-13-6l-109 0 0 110-74 0 0-110-109 0c-5 0-10 2-13 6-4 3-6 7-6 12l0 138c0 0 0 0 0 0 0 1 0 1 0 1l164 136 165-136c0 0 0-1 0-1z m63 19l-17-21c-2-2-4-3-6-3l-1 0c-3 0-5 1-6 2l-198 165-198-165c-2-2-4-2-7-2-2 0-4 1-6 3l-17 21c-2 2-2 4-2 7 0 3 1 5 3 6l205 171c6 5 14 8 22 8 8 0 16-3 22-8l69-58 0 56c0 2 1 5 3 6 2 2 4 3 7 3l54 0c3 0 5-1 7-3 2-1 3-4 3-6l0-117 62-52c2-1 3-3 3-6 0-3 0-5-2-7z"/>
<glyph glyph-name="add" unicode="&#98;" d="M480 288l-192 0 0 192c0 17-15 31-32 31-17 0-32-14-32-31l0-192-192 0c-18 0-32-14-32-32 0-18 14-32 32-32l192 0 0-192c0-17 15-31 32-31 17 0 32 14 32 31l0 192 192 0c18 0 32 14 32 32 0 18-14 32-32 32z"/>
<glyph glyph-name="call-pick" unicode="&#100;" d="M454 174l-69 37c-7 3-14 3-21 1l-19-9c-13-16-39-44-116 14-77 59-58 91-46 108l3 20c1 8-1 15-6 21l-55 56c-5 5-12 5-18 2l-29-19c-47-62-2-170 104-250 107-80 222-93 269-31l10 33c2 7-1 14-7 17z"/>
<glyph glyph-name="call-drop" unicode="&#101;" d="M51 199l77 12c7 2 14 6 18 12l10 18c0 21 4 59 101 59 96 0 100-38 100-59l10-18c4-6 11-10 18-12l77-12c7-1 13 3 16 9l12 33c0 78-101 136-233 136-133 0-234-58-234-136l12-33c3-6 9-10 16-9z"/>
<glyph glyph-name="close-button" unicode="&#103;" d="M256 512c-141 0-256-115-256-256 0-141 115-256 256-256 141 0 256 115 256 256 0 141-115 256-256 256z m0-468c-117 0-212 95-212 212 0 117 95 212 212 212 117 0 212-95 212-212 0-117-95-212-212-212z m99 311c-9 9-22 9-31 0l-68-68-68 68c-9 9-22 9-31 0-9-9-9-22 0-31l68-68-68-68c-9-9-9-22 0-31 8-9 22-9 31 0l68 68 68-68c9-9 23-9 31 0 9 9 9 22 0 31l-68 68 68 68c9 9 9 22 0 31z"/>
<glyph glyph-name="close-icon" unicode="&#104;" d="M502 502c-14 13-37 13-50 0l-196-196-196 196c-14 12-35 11-48-2-13-13-14-34-2-48l196-196-196-195c-13-14-13-37 0-51 14-13 37-13 50 0l196 196 196-196c13-13 36-13 50 0 13 14 13 37 0 50l-196 196 196 196c13 14 13 36 0 50z"/>
<glyph glyph-name="edit" unicode="&#106;" d="M508 411l-48-48-97 97-36-37 97-96-238-238-97 97-37-37 97-96-24-24 0 0c-3-4-7-7-12-8l-90-20c-6-2-13 0-18 5-4 4-6 11-5 17l21 90c1 5 4 10 8 12l0 1 382 382c6 5 15 5 20 0l77-77c3-2 4-6 4-10 0-4-1-7-4-10z"/>
<glyph glyph-name="filter" unicode="&#107;" d="M2 502c3 6 9 10 15 10l478 0c6 0 12-4 15-10 3-6 2-13-2-18l-177-192 0-275c0-6-3-11-8-14-5-4-11-4-17-1l-115 56c-6 2-10 8-10 15l0 219-177 192c-4 5-5 12-2 18z m210-193c2-3 3-7 4-11l0-215 81-39 0 254c0 4 1 8 4 11l157 169-404 0z"/>
<glyph glyph-name="help" unicode="&#108;" d="M126 35l-125-34 35 125c-55 91-46 207 20 290 67 83 178 116 279 83 102-33 172-125 177-231 2-64-19-126-58-175-48-58-119-92-194-93l-4 0c-46 0-91 12-130 35z m13 38c94-60 217-39 286 47 70 86 63 211-15 289-79 78-203 85-290 16-86-69-106-192-47-286l5-7-21-75 75 21z m97 45l0 39 40 0 0-39z m0 76l0 49 47 43c8 8 13 18 13 30 0 22-18 39-40 39-22 0-40-17-40-39l-40 0c0 36 25 68 61 77 35 9 72-7 89-40 18-32 11-72-16-96l-34-31 0-31z"/>
<glyph glyph-name="home-1" unicode="&#109;" d="M256 379l-183-151c0 0 0-1 0-1 0 0 0-1 0-1l0-152c0-11 9-20 20-21l122 0 0 122 82 0 0-122 122 0c11 1 20 10 20 21l0 152c0 1 0 1 0 2z m252-117l-69 58 0 130c0 2-1 5-3 7-2 2-5 3-7 3l-61 0c-3 0-6-1-8-3-2-2-3-5-2-7l0-62-78 65c-14 11-34 11-48 0l-228-191c-3-1-4-4-4-7 0-2 1-5 2-7l20-23c2-2 4-4 7-4 2 0 5 1 7 2l220 184 220-184c2-1 4-2 6-2l1 0c3 0 5 2 7 4l20 23c1 2 2 5 2 7 0 3-1 6-4 7z"/>
<glyph glyph-name="inactive-arrow" unicode="&#110;" d="M160 512l-50-48 214-208-214-208 50-48 265 256z"/>
<glyph glyph-name="search" unicode="&#114;" d="M498 82l-118 119c-18-28-41-51-69-69l119-118c18-19 49-19 68 0 19 19 19 50 0 68z m-112 237c0 107-86 193-193 193-107 0-193-86-193-193 0-107 86-193 193-193 107 0 193 86 193 193z m-193-145c-80 0-145 65-145 145 0 80 65 145 145 145 80 0 145-65 145-145 0-80-65-145-145-145z m-113 145l32 0c0 45 36 81 81 81l0 32c-63 0-113-50-113-113z"/>
<glyph glyph-name="reports" unicode="&#115;" d="M15 0c-5 0-11 3-13 7-3 5-3 11 0 16 2 4 8 7 13 7l16 0 0 166c0 8 7 15 15 15l60 0c8 0 15-7 15-15l0-166 30 0 0 106c0 4 2 8 4 11 3 3 7 4 11 4l60 0c4 0 8-1 11-4 2-3 4-7 4-11l0-106 30 0 0 226c0 8 7 15 15 15l60 0c4 0 8-2 11-5 2-3 4-6 4-10l0-226 30 0 0 315c0 4 2 8 4 11 3 3 7 4 11 4l60 0c8 0 15-6 15-15l0-315 16 0c5 0 11-3 13-7 3-5 3-11 0-16-2-4-8-7-13-7z m406 30l30 0 0 300-30 0z m-120 0l30 0 0 211-30 0z m-120 0l30 0 0 91-30 0z m-120 0l30 0 0 151-30 0z m90 224c0 2 0 4 0 6l-43 22c-9-8-20-13-32-13-19 0-36 11-43 29-7 18-2 38 12 51 14 13 35 15 52 6 17-9 26-27 24-46l44-22c13 13 34 16 50 8l60 61c-3 6-4 13-4 19 0 25 20 46 45 46 9 0 17-3 25-8l52 40c-2 4-2 9-2 13 0 25 20 45 45 45 25 0 45-20 45-45 0-25-20-45-45-45-9 0-18 3-25 8l-52-40c4-14 2-29-7-40-8-12-22-19-36-19-7 0-13 1-19 4l-60-60c3-7 4-13 4-20 0-25-20-45-45-45-25 0-45 20-45 45z m30 0c0-8 7-15 15-15 8 0 15 7 15 15 0 8-7 15-15 15-8 0-15-7-15-15z m-120 61c1-9 7-15 16-15 8 0 14 7 14 15 0 8-6 15-15 15-8 0-15-7-15-15z m240 60c0-8 7-14 15-14 8 0 15 6 15 15 0 8-7 15-15 15-4 0-8-2-11-5-3-3-4-7-4-11z m120 91c0-8 7-14 15-14 8 0 15 6 15 15 0 8-7 15-15 15-4 0-8-2-11-5-3-3-4-7-4-11z"/>
<glyph glyph-name="notification" unicode="&#116;" d="M194 49c-64 4-143 18-143 56 1 14 6 27 15 38 14 20 32 47 32 125l0 35c0 72 47 135 116 156l0 6c0 26 21 47 47 47 25 0 46-21 46-47l0-6c69-21 116-84 117-156l0-35c0-78 18-105 31-125 9-11 14-24 15-38 0-38-79-51-143-56-9-29-36-49-66-49-31 0-58 20-67 49z m67-26c17 0 32 10 40 24-16 0-30 0-40 0-10 0-24 0-41 0 8-14 24-24 41-24z m-140 280l0-35c0-85-21-117-35-138-7-7-11-16-12-25 0-17 80-35 187-35 106 0 186 18 186 35-1 9-5 18-11 25-14 21-36 53-36 138l0 35c0 77-62 139-139 139-77 0-140-62-140-139z m163 161l0 1c0 13-10 24-23 24-13 0-24-11-24-24l0-1c8 1 16 1 24 1 7 0 15 0 23-1z m-136-160l0 0c0 5 5 9 10 9 5 0 9-4 9-9l0 0c0-5-4-9-9-9-5 0-10 4-10 9z m16 36c-2 1-4 3-5 5-1 3-1 5 0 8 18 42 59 69 105 69 3 0 5-1 7-3 2-1 3-4 3-6 0-5-5-10-10-10-38 0-73-22-88-58-1-3-4-5-8-5-1 0-3 0-4 0z"/>
<glyph glyph-name="delete" unicode="&#105;" d="M483 424c-2 2-4 3-7 3l-101 0-23 55c-4 9-10 16-18 21-7 6-16 9-26 9l-104 0c-10 0-19-3-26-9-8-5-14-12-18-21l-23-55-101 0c-3 0-5-1-7-3-2-2-4-5-3-8l0-21c-1-3 1-6 3-8 2-2 4-3 7-3l31 0 0-317c0-17 5-34 16-48 8-12 22-19 37-19l272 0c15 0 29 8 37 20 10 14 16 31 15 48l0 316 32 0c3 0 5 1 7 3 2 2 4 5 3 8l0 21c1 3-1 6-3 8z m-284 42c1 2 3 3 5 3l104 0c2 0 4-1 6-3l15-39-146 0z m204-398c0-5-1-9-3-13-1-4-2-7-4-9-2-2-3-3-4-3l-272 0c-1 0-2 1-4 3-2 2-3 5-4 9-2 4-3 8-3 13l0 316 294 0z m-241 37l21 0c3 0 6 1 8 3 2 2 3 5 3 8l0 196c0 3-1 6-3 8-2 2-5 3-8 3l-21 0c-3 0-6-1-8-3-2-2-3-5-3-8l0-196c0-3 1-6 3-8 2-2 5-3 8-3z m83 0l22 0c3 0 6 1 8 3 2 2 3 5 3 8l0 196c0 3-1 6-3 8-2 2-5 3-8 3l-22 0c-3 0-6-1-8-3-2-2-3-5-3-8l0-196c0-3 1-6 3-8 2-2 5-3 8-3z m84 0l21 0c3 0 6 1 8 3 2 2 3 5 3 8l0 196c0 3-1 6-3 8-2 2-5 3-8 3l-21 0c-3 0-6-1-8-3-2-2-3-5-3-8l0-196c0-3 1-6 3-8 2-2 5-3 8-3z"/>
<glyph glyph-name="seller" unicode="&#113;" d="M483 103c0 27-22 39-47 48l-137 41 0 18c20 13 34 33 41 55 22 3 38 22 39 44l0 79c0 55-36 103-88 119-52 16-108-4-139-49-23-8-38-29-38-53l0-96c0-22 17-41 39-44 6-22 20-42 40-55l0-18c0 0-80-24-103-31-24-6-64-15-64-58l0-103 457 0z m-140-3l-19-18 9-26-39-33 29 142 12-4z m-193 0l7 61 12 4 30-142-40 33 9 26z m96 38l25-25-13-25-24 0-12 25z m38-38l6-7-12-57-5 42z m-76 0l11-22-5-42-12 57z m28-29l20 0 7-53-33 0z m71 100l-12-57-36 35 33 26z m36 113c0 2 0 5 0 7l0 43c11-4 18-14 18-25 0-12-7-21-18-25z m-183 158l3 0 3 5c26 39 75 56 120 43 44-14 75-55 75-102l0-44c-5 4-11 7-18 8l0 19-10 0c-11 0-20 7-22 17-2 8-9 15-17 17-8 2-17 0-23-6l-10-10c-12-12-28-18-44-18l-68 0 0-19c-6-1-12-4-18-8l0 61c0 17 12 32 29 37z m-29-133c0 11 8 21 18 25l0-43c0-2 0-5 0-7-10 4-17 14-17 25z m36-18l0 62 50 0c21 0 41 8 56 23l10 11c2 1 4 2 6 1 2 0 4-2 5-4 3-16 16-27 32-30l0-63c0-44-36-79-80-79-44 0-79 35-79 79z m79-97c12 0 24 3 35 7l0-11-35-29-35 29 0 11c11-5 23-7 35-7z m-46-19l33-26-35-35-12 57z m-61-20l-8-61 17-17-9-27 39-32-136 0c0 0 0 40 0 85 0 45 97 52 97 52z m326-137l-150 0 39 32-9 27 17 17-8 61 76-21c18-6 35-12 35-31z"/>
<glyph glyph-name="print" unicode="&#121;" d="M472 378l-54 0 0 99c0 9-8 17-17 17l-290 0c-9 0-17-8-17-17l0-99-54 0c-22 0-40-18-40-40l0-171c0-22 18-40 40-40l54 0 0-92c0-9 8-17 17-17l290 0c9 0 17 8 17 17l0 92 54 0c22 0 40 18 40 40l0 171c0 22-18 40-40 40z m-344 82l256 0 0-82-256 0z m256-408l-256 0c0 4 0 136 0 140l256 0c0-4 0-137 0-140z m94 115c0-4-3-6-6-6l-54 0 0 48c0 9-8 17-17 17l-290 0c-9 0-17-8-17-17l0-48-54 0c-3 0-6 2-6 6l0 171c0 3 3 6 6 6 13 0 419 0 432 0 3 0 6-3 6-6z m-77 145l-44 0c-9 0-17-8-17-17 0-9 8-17 17-17l44 0c9 0 17 8 17 17 0 9-8 17-17 17z m-71-200l-148 0c-9 0-17-7-17-17 0-9 8-17 17-17l148 0c9 0 17 8 17 17 0 10-8 17-17 17z m0 54l-148 0c-9 0-17-8-17-17 0-10 8-17 17-17l148 0c9 0 17 7 17 17 0 9-8 17-17 17z"/>
<glyph glyph-name="pdf" unicode="&#122;" d="M149 250c0 14-10 22-26 22-7 0-12-1-14-2l0-44c2 0 6-1 11-1 18 0 29 9 29 25z m105 21c-8 0-13 0-16-1l0-98c3-1 8-1 12-1 31 0 51 17 51 53 0 31-18 47-47 47z m200 58l-12 0 0 59c0 1 0 1-1 1 0 3 0 5-2 7l-99 113c0 0 0 0 0 0 0 0-1 1-2 1 0 0 0 1 0 1-1 0-2 0-2 1-1 0-1 0-1 0-1 0-1 0-2 0l-243 0c-11 0-20-9-20-20l0-163-12 0c-16 0-29-13-29-29l0-149c0-16 13-29 29-29l12 0 0-102c0-11 9-20 20-20l331 0c12 0 21 9 21 20l0 102 12 0c16 0 29 13 29 29l0 149c0 16-13 29-29 29z m-364 163l233 0 0-103c0-5 4-10 10-10l88 0 0-50-331 0z m247-267c0-29-11-49-25-61-16-13-40-19-69-19-18 0-30 1-39 2l0 147c13 2 29 3 46 3 28 0 47-5 61-16 16-11 26-30 26-56z m-262-79l0 148c10 2 25 3 46 3 21 0 36-4 46-12 9-7 16-20 16-34 0-15-5-27-14-36-12-11-29-16-49-16-4 0-8 0-11 1l0-54-34 0z m346-120l-331 0 0 96 331 0 0-96z m30 242l-58 0 0-34 54 0 0-27-54 0 0-61-34 0 0 150 92 0z"/>
<glyph glyph-name="up-dir" unicode="&#65;" d="M138 154c0 0 118 204 118 204 0 0 118-204 118-204 0 0-236 0-236 0"/>
<glyph glyph-name="down-dir" unicode="&#66;" d="M374 358c0 0-118-204-118-204 0 0-118 204-118 204 0 0 236 0 236 0"/>
<glyph glyph-name="right-dir" unicode="&#67;" d="M154 374c0 0 204-118 204-118 0 0-204-118-204-118 0 0 0 236 0 236"/>
<glyph glyph-name="left-dir" unicode="&#68;" d="M358 374c0 0 0-236 0-236 0 0-204 118-204 118 0 0 204 118 204 118"/>
<glyph glyph-name="inventory" unicode="&#118;" d="M120 0c-32 1-57 29-56 61l0 392c-1 32 25 58 56 59l226 0c3 0 6-1 8-3l91-95c2-3 3-6 3-9l0-344c1-32-24-60-56-61z m-33 61c-1-19 14-36 33-37l272 0c19 1 34 18 33 37l0 297 0 0 0 35-58 0c-20 1-35 17-35 36l0 59-212 0c-19 0-34-16-33-35l0-392z m268 368c0-3 1-6 3-8 3-3 6-4 9-4l41 0-53 54z m-68-339l0 24 89 0 0-24z m-155 0l0 24 119 0 0-24z m74 59l0 23 170 0 0-23z m-74 2l0 24 46 0 0-24z m2 60l0 23 240 0 0-23z m0 61l0 24 240 0 0-24z m-2 60l0 23 46 0 0-23z m74 2l0 24 170 0 0-24z"/>
<glyph glyph-name="sketch" unicode="&#111;" d="M463 166c0 2-2 4-4 6l-83 84 131 132c3 3 5 7 5 11 0 5-2 9-5 12l-96 96c-3 3-7 5-12 5-4 0-8-2-12-5l-131-131-72 71-48 48c-19 20-51 20-71 0l-48-48c-20-20-20-52 0-71l119-120-131-132c-3-3-5-7-5-11 0-5 2-9 5-12l96-96c3-3 7-5 12-5 4 0 8 2 11 5l132 131 84-83c2-2 4-3 6-4l144-48c6-2 12-1 17 4 4 4 6 11 4 17z m-159 210l24-24c6-7 17-7 24 0 6 6 6 17 0 24l-24 23 24 24 24-24c6-6 17-6 23 0 7 7 7 18 0 24l-23 24 23 24 72-72-119-119-72 72z m119-216l-23-23-252 251 24 23z m-346 204l-36 35c-7 7-7 18 0 24l48 48c3 3 7 5 12 5 4 0 8-2 12-5l35-36z m36-323l-72 71 24 24 24-24c6-6 17-6 24 1 6 6 6 17 0 23l-24 24 24 24 24-24c6-6 17-6 23 0 7 7 7 18 0 24l-23 24 23 24 72-72z m239 48l-251 251 23 24 252-251z m31-17l57 57 28-85z"/>
<glyph glyph-name="user-management" unicode="&#71;" d="M364 13c-3-1-6 0-8 2-2 2-4 4-4 7l0 9c0 16 6 31 17 41 11 11 26 17 42 17l30 0c32 0 58-26 58-58l0-9c0-3-1-5-4-7-2-2-5-3-7-2z m-340 0c-2-1-5 0-7 2-3 2-4 4-4 7l0 9c0 0 0 0 0 0 0 16 6 31 17 41 11 11 26 17 42 17l30 0c32 0 58-26 58-58l0-9c0-3-2-5-4-7-2-2-5-3-8-2z m175 26l-1 0c-5 2-8 8-6 14 2 5 8 8 14 7 32-12 68-12 101 0l0 0c3 1 6 0 8-1 3-1 5-3 6-6 2-6-1-12-7-14-37-13-78-13-115 0z m177 109c1 23 20 41 43 40 23 0 41-19 41-42 0-23-19-42-42-42-24 1-42 20-42 44z m-332 0c0 23 19 43 42 43 24 0 44-19 44-43 0-24-20-44-44-44-23 1-42 20-42 44z m19 76c0 56 24 110 68 146 4 3 10 2 13-1 4-5 4-11 0-16-38-32-60-79-60-129 0-4-2-8-5-10-4-2-8-2-11 0-3 2-5 6-5 10z m365 0c0 53-25 104-68 135-5 4-6 11-2 16 1 2 4 4 6 4 3 1 6 0 8-2 49-36 77-93 77-153 0-4-2-8-5-10-3-2-7-2-11 0-3 2-5 6-5 10z m-234 97c-3-1-6 0-8 2-2 1-3 4-4 7l0 8c0 1 0 1 0 1 0 16 7 30 18 41 11 11 26 17 41 17l30 0c33 0 59-26 59-58l0-9c-1-3-2-5-4-7-2-2-5-3-8-2z m20 135c-1 15 7 30 20 38 14 8 30 8 44 0 13-8 21-23 20-38 1-16-7-30-20-38-14-8-30-8-44 0-13 8-21 22-20 38z"/>
<glyph glyph-name="news" unicode="&#72;" d="M464 512l-352 0c-27 0-48-21-48-48l0-32-16 0c-27 0-48-21-48-48l0-320c0-35 29-64 64-64l384 0c35 0 64 29 64 64l0 400c0 27-22 48-48 48z m16-448c0-18-14-32-32-32l-384 0c-18 0-32 14-32 32l0 320c0 9 7 16 16 16l16 0 0-320c0-9 7-16 16-16 9 0 16 7 16 16l0 384c0 9 7 16 16 16l352 0c9 0 16-7 16-16z m-168 240l128 0c4 0 8 4 8 8 0 4-4 8-8 8l-128 0c-4 0-8-4-8-8 0-4 4-8 8-8z m0 48l128 0c4 0 8 4 8 8 0 4-4 8-8 8l-128 0c-4 0-8-4-8-8 0-4 4-8 8-8z m0 48l128 0c4 0 8 4 8 8 0 4-4 8-8 8l-128 0c-4 0-8-4-8-8 0-4 4-8 8-8z m-48-320l-128 0c-4 0-8-4-8-8 0-4 4-8 8-8l128 0c4 0 8 4 8 8 0 4-4 8-8 8z m0 48l-128 0c-4 0-8-4-8-8 0-4 4-8 8-8l128 0c4 0 8 4 8 8 0 4-4 8-8 8z m0 48l-128 0c-4 0-8-4-8-8 0-4 4-8 8-8l128 0c4 0 8 4 8 8 0 4-4 8-8 8z m176-96l-128 0c-4 0-8-4-8-8 0-4 4-8 8-8l128 0c4 0 8 4 8 8 0 4-4 8-8 8z m0 48l-128 0c-4 0-8-4-8-8 0-4 4-8 8-8l128 0c4 0 8 4 8 8 0 4-4 8-8 8z m0 48l-128 0c-4 0-8-4-8-8 0-4 4-8 8-8l128 0c4 0 8 4 8 8 0 4-4 8-8 8z m0 96l-304 0c-4 0-8-4-8-8 0-4 4-8 8-8l304 0c4 0 8 4 8 8 0 4-4 8-8 8z m0-48l-304 0c-4 0-8-4-8-8 0-4 4-8 8-8l304 0c4 0 8 4 8 8 0 4-4 8-8 8z m-296 80l112 0c9 0 16 7 16 16l0 112c0 9-7 16-16 16l-112 0c-9 0-16-7-16-16l0-112c0-9 7-16 16-16z m16 112l80 0 0-80-80 0z"/>
<glyph glyph-name="sales" unicode="&#69;" d="M181 376c0-33-27-60-60-60-33 0-60 27-60 60 0 33 27 60 60 60 33 0 60-27 60-60z m270 0c0-33-27-60-60-60-33 0-60 27-60 60 0 33 27 60 60 60 33 0 60-27 60-60z m-300-247c-36 25-60 65-60 112l30 0c0-58 47-105 105-105l15 0 0 60-15 0c-25 0-45 20-45 45 0 41-34 75-75 75l-8 0c-37 0-69-28-74-64l-24-176 151 0z m263 187l-8 0c-41 0-75-34-75-75 0-25-20-45-45-45l-15 0 0-60 15 0c58 0 105 47 105 105l30 0c0-47-24-88-60-112l0-53 151 0-24 176c-5 36-37 64-74 64z"/>
<glyph glyph-name="sales-1" unicode="&#72;" d="M447 126l0 22c0 37-22 71-56 86l-75 33c13 14 20 32 20 51l21 10c9 5 14 13 14 23l0 6c0 7-2 14-7 18-5 5-12 8-18 8l-9 0 0 59c0 12-4 22-12 30-8 8-19 13-31 13l-4 0c-11 0-22 4-30 13l-14 14-49-16c-6-2-12-5-17-9l-7-5c-15-11-25-29-25-48l0-51-8 0c-7 0-13-3-18-8-5-4-8-11-8-18l0-7c0-9 6-18 15-23l20-10c1-19 8-37 21-51l-75-33c-34-15-56-49-57-86l0-147 401 0c7 0 14 3 19 7 5 5 7 12 7 19l0 76c-1 11-8 20-18 24z m-111 240l9 0c2 0 4-1 6-3 2-1 2-3 2-6l0-7c0-3-2-6-5-7l-12-6z m-188-29l-11 6c-3 1-5 4-6 7l0 7c0 3 1 5 3 6 1 2 4 3 6 3l8 0z m192-100l-39-39-40 34c4 2 8 4 11 5l26 16c1 0 1 1 2 1z m-174 197c-1 13 6 26 17 34l6 5c4 3 8 5 12 6l39 13 7-7c11-12 26-18 42-18l5 0c6 0 13-3 18-7 5-5 7-12 7-19l0-35c-3 1-6 1-8 1l-54 0c-12 0-23 6-30 16l-3 2c-8 11-23 14-35 6l-23-15z m17-179c1 0 1-1 2-2l26-15c3-2 7-4 11-5l-40-34-39 39z m51-238l-94 0 0 94-17 0 0-94-68 0 0 132c-1 30 18 58 46 70l26 11 55-54 52 44z m-14 236l-25 15c-18 11-29 30-29 51l0 71c0 3 1 5 3 7l30 21c4 2 9 1 12-2l2-3c11-13 27-21 44-22l54 0c2 0 4 0 6-2 1-2 2-4 2-6l0-64c0-21-11-40-29-51l-25-15c-14-9-31-9-45 0z m75-236l-44 0 0 202 52-44 55 55 26-12c28-12 46-40 46-70l0-20-17 0 0 8c0 7-3 13-7 18-5 5-12 8-19 8l-17 0c-6 0-13-3-18-8-5-5-7-11-7-18l0-8-26 0c-7 0-13-3-18-8-5-5-8-11-7-18l0-76c0-3 0-6 1-9z m101 119l0-8-34 0 0 8c0 2 1 5 2 6 2 2 4 3 6 3l17 0c3 0 5-1 7-3 1-1 2-4 2-6z m51-111c0-2-1-4-2-6-2-1-4-2-6-2l-120 0c-2 0-4 1-6 2-2 2-3 4-2 6l0 43 59 0 0-17 17 0 0 17 60 0z m0 60l-136 0 0 17c-1 2 0 5 2 6 2 2 4 3 6 3l120 0c2 0 4-1 6-3 1-1 2-4 2-6z"/>
<glyph glyph-name="information-update" unicode="&#73;" d="M511 303c-11 115-104 204-219 209-114 5-216-75-237-188-2 0-4-1-6-2l-27-16c-9-6-16-15-19-25-10-36-2-98 89-189 72-72 126-92 163-92 9 0 18 1 26 3 10 3 19 10 25 19l16 27c1 2 2 4 2 6 117 22 198 130 187 248z m-204-245l-16-27c-3-5-8-9-14-11-45-12-107 17-173 84-67 66-97 128-84 173 2 6 6 11 11 14l27 16c2 2 5 1 7-1l43-65c1-2 0-5-2-6l-24-19c-8-7-11-19-5-28l1-4c13-22 28-42 47-59 17-19 37-34 59-47l4-1c9-6 21-3 28 5l19 24c1 2 4 3 6 1l65-43c2-1 2-4 1-6z m14 14c-1 3-3 5-6 7l-64 43c-10 6-23 4-30-5l-19-24c-1-2-4-3-6-2l-3 2c-21 12-40 27-56 44-17 16-32 35-44 56l-2 3c-1 2 0 5 2 6l24 19c9 7 11 20 5 30l-43 64c-2 3-4 5-7 6 20 106 116 180 223 173 107-6 193-92 199-199 7-107-67-203-173-223z m-39 397c-76 0-144-45-173-114-2-5 0-10 4-12 1 0 2 0 3 0 4 0 7 2 8 5 27 63 89 104 158 104 4 0 8 4 8 9 0 4-4 8-8 8z m66-345c-4-2-6-6-4-11 1-4 6-6 11-4 69 29 114 97 114 173 0 3-1 6-4 7-3 2-6 2-9 0-2-1-4-4-4-7 0-69-41-131-104-158z m-34 249l0-31-34 0 0 31z m-48-166c4 1 7 2 9 5 2 2 3 4 3 7 1 5 1 11 1 16l0 58c0 4 0 7-1 10 0 2-1 4-2 6-1 2-2 3-4 4-2 0-5 1-7 2l0 8 34 1 16 0 0-89c0-4 0-8 0-11 0-2 0-4 1-5 0-2 0-3 1-4 0-1 1-2 2-3 0-1 2-2 3-3 2-1 3-1 5-2l0-8-61 0z"/>
<glyph glyph-name="monitoring" unicode="&#74;" d="M478 499l-444 0c-19 0-34-15-34-34l0-282c0-4 4-8 9-8l494 0c5 0 9 4 9 8l0 282c0 19-15 34-34 34z m17-307l-478 0 0 273c0 9 8 17 17 17l444 0c9 0 17-8 17-17z m8-2l-494 0c-5 0-9-4-9-8l0-43c0-19 15-34 34-34l444 0c19 0 34 15 34 34l0 43c0 4-4 8-9 8z m-8-51c0-9-8-17-17-17l-444 0c-9 0-17 8-17 17l0 34 478 0 0-34z m-213 17l-52 0c-4 0-8-4-8-8 0-5 4-9 8-9l52 0c3 0 6 1 7 4 2 3 2 6 0 9-1 3-4 4-7 4z m187 309l-426 0c-5 0-9-4-9-8l0-274c0-4 4-8 9-8l426 0c5 0 9 4 9 8l0 274c0 4-4 8-9 8z m-8-273l-410 0 0 256 410 0z m-94-139l-222 0c-14 0-26-11-26-26 0-14 12-25 26-25l222 0c14 0 26 11 26 25 0 15-12 26-26 26z m0-34l-222 0c-3 0-6 1-8 4-1 3-1 6 0 9 2 2 5 4 8 4l222 0c3 0 6-2 8-4 1-3 1-6 0-9-2-3-5-4-8-4z m-17 34c-28 0-43 20-43 60 0 4-4 8-8 8l-86 0c-4 0-8-4-8-8 0-40-15-60-43-60-3 0-6-2-8-4-1-3-1-6 0-9 2-3 5-4 8-4l188 0c3 0 6 1 8 4 1 3 1 6 0 9-2 2-5 4-8 4z m-146 0c11 15 18 33 18 51l68 0c0-18 7-36 18-51z m204 194l-21 20 12 12c2 2 3 5 2 8-1 3-3 5-6 6l-85 26c-3 0-6 0-9-3-2-2-3-5-2-8l26-85c1-3 3-6 6-6 3-1 6 0 8 2l12 12 21-21c1-1 3-2 6-2 2 0 4 1 6 2l24 25c3 3 3 8 0 12z m-30-19l-19 19c-5 5-12 5-16 0l-6-6-17 57 56-17-6-7c-4-4-4-10 0-14l20-19z m-20 203l-239 0c-4 0-8-4-8-9l0-42c0-5 4-9 8-9l239 0c5 0 9 4 9 9l0 42c0 5-4 9-9 9z m-8-43l-222 0 0 26 222 0z m-128-52l-68 0c-5 0-9-4-9-8l0-35c0-4 4-8 9-8l68 0c5 0 8 4 8 8l0 35c0 4-3 8-8 8z m-9-34l-51 0 0 17 51 0z m145 129l-239 0c-4 0-8-4-8-9l0-162c0-4 4-8 8-8l204 0c2 0 5 1 6 3 2 2 3 5 2 8l-11 36 36-11c3-1 5 0 8 1 2 2 3 4 3 7l0 126c0 5-4 9-9 9z m-8-123l-40 12c-3 1-7 0-9-3-2-2-3-5-2-8l12-40-183 0 0 145 222 0z"/>
<glyph glyph-name="technical" unicode="&#75;" d="M156 155l0 1c-3 2-7 3-10 2-4 0-7-3-7-7-1-3 0-7 2-10l1 0c4-4 10-4 14 0 4 4 4 10 0 14z m215 216c-58 57-149 63-213 13-65-49-83-138-42-209 2-5 8-6 13-3 5 2 7 8 4 13-36 62-20 141 37 184 57 43 136 38 187-13 50-50 55-130 11-187-43-56-122-72-183-36-5 3-11 1-14-3-3-5-1-11 3-14 71-41 161-23 210 41 50 65 44 156-13 214z m141-71c0 5-4 9-8 10l-37 6-20 47 22 30c3 4 2 10-1 13l-62 62c-4 4-9 4-13 1l-30-22-48 20-5 37c-1 4-5 8-10 8l-88 0c-5 0-9-4-10-8l-6-37-47-20-30 22c-4 3-10 2-13-1l-62-62c-4-4-4-9-1-13l22-30-20-48-37-5c-4-1-8-5-8-10l0-88c0-5 4-9 8-10l37-6 20-47-22-30c-3-4-2-10 1-13l62-62c4-4 9-4 13-1l30 22 47-20 6-37c1-4 5-8 10-8l88 0c5 0 9 4 10 8l6 37 47 20 30-22c4-3 10-2 13 1l62 62c4 4 4 9 1 13l-22 30 20 48 37 5c4 1 8 5 8 10z m-54-85c-3 0-6-2-8-6l-23-57c-2-3-1-7 1-10l20-28-50-50-28 20c-3 3-6 3-10 2l-57-24c-3-2-6-4-6-8l-6-34-70 0-6 34c0 3-2 6-6 8l-57 24c-4 1-7 0-10-2l-28-20-50 50 20 28c3 3 3 6 2 10l-24 57c-2 3-4 6-8 6l-34 6 0 70 34 6c3 0 6 2 8 6l24 57c1 4 0 7-2 10l-20 28 50 50 28-20c3-3 6-3 10-2l57 24c3 2 6 4 6 8l6 34 70 0 6-34c0-3 2-6 6-8l57-24c4-1 7 0 10 2l28 20 50-50-20-28c-3-3-3-6-2-10l24-57c2-3 4-6 8-6l34-6 0-70z m-111 29c-12 11-29 16-46 13l-44 44c3 20-4 40-20 52-16 13-37 16-55 8-4-1-6-4-7-7 0-3 1-7 3-9l15-15c3-3 3-8 0-11-3-3-8-3-11 0l-15 15c-2 2-6 3-9 3-3-1-6-3-7-6-8-19-5-40 8-56 12-16 32-23 52-20l44-44c-3-20 4-40 20-52 16-13 37-16 56-8 3 1 5 4 6 7 0 3-1 7-3 9l-15 14c-3 4-3 9 0 12 4 3 9 3 12 0l14-15c2-2 6-3 9-3 3 1 6 3 7 7 9 21 3 46-14 62z m-2-37c-11 10-28 10-39-1-11-10-11-28-1-39l1 0c-11 1-20 7-26 15-6 9-7 20-5 30 1 3 0 7-2 9l-52 52c-2 2-6 3-9 2-10-2-21-1-30 5-8 6-14 15-15 26l0-1c11-10 29-10 39 1 11 10 11 28 1 39l-1 0c11-1 20-7 26-15 6-9 7-20 5-30-1-3 0-7 2-9l52-52c2-2 6-3 9-2 10 2 21 1 30-5 8-6 14-15 15-26z m2 120c-16 21-39 36-65 42-6 1-11-2-12-7-2-6 2-11 7-12 22-5 41-18 55-35 3-4 9-5 14-2 4 4 5 10 1 14z m19-36l0 1c-1 5-7 8-12 6-6-1-8-7-7-12l0-1c1-3 4-6 8-7 3 0 7 1 9 4 3 2 4 6 2 9z"/>
<glyph glyph-name="customer-service" unicode="&#76;" d="M222 350c-14 0-26-12-26-26l17 0c0 5 4 9 9 9 5 0 9-4 9-9l17 0c0 14-12 26-26 26z m68 0c-14 0-26-12-26-26l17 0c0 5 4 9 9 9 5 0 9-4 9-9l17 0c0 14-11 26-26 26z m-34-228c-19 0-35-15-35-35 0-19 16-35 35-35 19 0 35 16 35 35 0 20-16 35-35 35z m0-52c-10 0-17 8-17 17 0 10 7 18 17 18 10 0 17-8 17-18 0-9-7-17-17-17z m205-53l0 111c0 71-58 128-128 128l-9 0c3 3 5 6 8 9l9 0c24 0 43 19 43 42l0 15c11 7 17 19 17 32 0 13-6 25-17 32-1 70-58 126-128 126-70 0-127-56-128-126-14-9-20-27-15-43 4-16 19-27 36-27l6 0c4-23 16-45 34-60l-10 0c-70 0-128-57-128-128l0-111-51 0 0-17 512 0 0 17z m-94 290c0-13-10-23-22-25 6 10 10 22 12 34l6 0c1 0 3 0 4 0z m17 47c0-12-10-21-21-21l-5 0 0 42 5 0c11 0 21-9 21-21z m-230-21l-5 0c-11 0-20 10-20 21 0 12 9 21 20 21l5 0z m-5 60c-1-1-2-1-4-1 5 58 53 103 111 103 58 0 106-45 111-103-2 0-3 0-4 1l-6 0c-8 49-51 85-101 85-50 0-93-36-101-85z m192-17c-61 2-102 27-102 51 0 3-2 6-4 7-3 2-6 2-9 0-3-1-4-4-4-7 0-22-22-39-51-42 5 45 44 78 89 76 46-3 81-40 81-85z m-170-43l0 34c24 2 46 14 60 34 18-24 60-41 110-42l0-26c0-19-6-37-17-51l-68 0 0-17 51 0c-26-20-60-23-89-8-29 14-47 44-47 76z m59-99c17-5 35-5 52 0l-26-53z m12-63l-15 0-34 68 15 0z m62 68l15 0-34-68-15 0z m-210-111l0-111-26 0 0 111c0 59 47 108 106 111l34-68-71 0c-24 0-43-19-43-43z m307-111l-290 0 0 111c0 14 11 26 26 26l238 0c15 0 26-12 26-26z m43 0l-26 0 0 111c0 24-19 43-43 43l-71 0 34 68c59-3 106-52 106-111z m-80 86l14 0 0-59-14 0z m0 13l14 0 0-15-14 0z m71 318l15 0 0-15-15 0z m0-12l15 0 0-45-15 0z m-376-161l15 0 0-15-15 0z"/>
<glyph glyph-name="response" unicode="&#78;" d="M110 16l-15 21c-2 3-6 5-9 5-4-1-7-3-9-6-1-4-1-8 1-11l16-21c3-4 9-5 13-2 4 3 6 9 3 14z m115-4l-16 78c-8 38-30 71-62 93l-35 23c-14 9-33 8-45-4l0 120c0 13-7 25-19 30-12 6-25 4-35-4-8-6-13-16-13-26l0-155c0-20 6-40 18-56l18-25c2-4 5-5 9-5 4 0 7 2 8 6 2 3 1 7-1 10l-18 25c-9 13-14 29-14 45l0 155c0 8 6 14 13 14 8 0 14-6 14-14l0-123c0-17 6-34 18-47 0 0 1-1 2-2 6-7 14-15 21-23l11-11 0 0 15-16c4-4 10-4 14-1 4 4 4 10 1 14l-26 27-23 25 0 0c-5 6-5 16 1 22 5 6 13 7 19 3l35-24c28-19 47-47 54-80l17-78c1-5 6-9 11-8 6 1 9 7 8 12z m-151 54l0 0c-3 5-9 6-14 3-4-4-5-10-2-14l0 0c3-5 9-6 14-3 4 3 5 10 2 14z m425 282c-10 8-23 10-35 4-12-5-19-17-19-30l0-120c-12 12-31 13-45 4l-35-23c-32-22-54-55-62-93l-16-78c-1-5 2-11 8-12 5-1 10 3 11 8l17 78c7 33 26 61 54 80l35 24c6 4 14 3 19-3 6-6 6-16 1-22l-1 0-48-52c-4-4-3-10 1-14 4-4 10-3 14 1 0 0 41 43 47 50 1 1 2 1 2 2 12 13 18 30 18 47l0 123c0 8 6 14 14 14 7 0 13-6 13-14l0-155c0-16-5-32-14-45l-76-106c-2-3-3-7-1-10 1-4 5-6 8-6 4-1 8 1 9 4l76 107c12 16 18 36 18 56l0 155c0 10-5 20-13 26z m-116-28l-18 5 0 3c12 8 19 22 19 36l0 24c0 17-10 33-26 40-16 8-34 5-48-6-9 22-30 36-54 36-24 0-45-14-54-36-13 11-32 14-48 6-16-7-26-23-26-40l0-24c0-14 7-28 19-36l0-3-18-5c-21-5-36-24-36-45l0-19c0-6 5-10 10-10l46 0c0-1 0-2 0-4l0-36c0-5 5-10 10-10l60 0c6 0 10 5 10 10 0 6-4 10-10 10l-10 0 0 21c0 6-4 10-10 10-5 0-10-4-10-10l0-21-20 0 0 26c0 19 13 36 32 41l27 6 19-42c1-3 5-6 9-6 4 0 8 3 9 6l18 42 28-6c19-5 32-22 32-41l0-26-20 0 0 21c0 6-5 10-10 10-6 0-10-4-10-10l0-21-11 0c-6 0-10-4-10-10 0-5 4-10 10-10l61 0c5 0 10 5 10 10l0 36c0 2 0 3 0 4l46 0c5 0 10 4 10 10l0 19c0 21-15 40-36 45z m-44 92c13 0 24-10 25-23l-14 0c-12 0-23 3-33 8 3 9 12 15 22 15z m-24-46c0 0 0 1 0 1l0 9c11-4 23-7 35-7l14 0 0-4c0-14-11-25-25-25-13 0-25 11-25 25z m-97 34c0 20 15 36 35 38 20 2 38-12 41-32l-17 10c-4 2-9 1-13-3-8-9-20-15-33-15l-13 0z m-45 12c10 0 19-5 23-15-11-5-22-8-34-8l-14 0c1 13 12 23 25 23z m-25-43l14 0c12 0 24 3 36 7l0-11c0-14-11-25-25-25-14 0-25 11-25 25z m48-67c-19-4-35-18-42-36l-41 0 0 9c0 12 9 23 21 26l26 6c4 1 7 5 7 10l0 3c4 0 8 0 11 0l0-3c0 0 0 0 0 0 0-5 4-9 9-10l14-4z m28 16c-2 1-5 2-8 2l-18 5 0 3c4 2 7 5 9 8 5-7 10-13 17-18z m44-15l-12-27-12 27 0 7c8-1 16-1 24 0z m-12 26c-21 0-38 17-38 38l0 11 13 0c16 0 31 6 43 16l21-12 0-16c-1-21-18-37-39-37z m32-11l0 0c7 5 13 11 17 18 3-3 5-6 9-8l0-3-18-5c-3 0-6-1-8-2z m111-52l-41 0c-7 18-23 32-42 36l-5 1 15 4c4 1 8 5 8 10 0 0 0 0 0 0l0 3c3 0 7 0 11 0l0-3c0-5 3-9 8-10l25-6c12-3 21-14 21-26z m-136-53c-3 4-9 4-13 2-4-3-5-8-3-13 2-4 6-6 11-6 5 1 8 6 8 10 0 3-1 6-3 7z m-7 299c-6 0-10-4-10-10l0-15c0-5 4-10 10-10 6 0 10 5 10 10l0 15c0 6-4 10-10 10z m-37-33l-10 11c-3 3-7 4-10 3-4-1-7-4-8-7 0-4 1-8 4-10l10-11c3-3 6-4 10-3 4 1 6 4 7 8 1 3 0 7-3 9z m98 11c-4 3-10 3-14 0l-10-11c-3-2-4-6-3-10 1-3 3-6 7-7 4-1 7 0 10 3l10 10c4 4 4 11 0 15z"/>
<glyph glyph-name="accounts" unicode="&#79;" d="M398 331c30 18 44 55 34 89-11 34-44 56-79 53-36-2-65-29-70-64-18 6-36 6-54 0-5 35-34 62-70 64-35 3-68-19-79-53-10-34 4-71 34-89-66-20-114-90-114-173 0-3 2-6 5-8 31-15 64-25 99-31-1-7-2-14-2-21 0-3 2-6 5-8 28-13 58-22 88-28l29-30c4-3 9-3 13 0l23 23c50 2 99 14 145 35 3 2 5 5 5 8 0 7-1 14-1 21 34 6 67 16 98 31 3 2 5 5 5 8 0 83-48 153-114 173z m-40 126c25 0 47-16 56-38 9-23 3-49-15-66-18-17-44-21-66-10-2 23-15 45-34 58 2 31 28 55 59 56z m-102-60c33 0 60-27 60-60 0-33-27-60-60-60-33 0-60 27-60 60 0 33 27 60 60 60z m-162 0c0 32 25 58 58 60 32 1 59-24 61-56-19-13-32-35-34-58-18-9-40-8-57 3-18 11-28 30-28 51z m12-261c-31 6-60 15-89 27 3 87 63 157 137 157 9 0 19-1 28-4 5-18 18-35 34-45-55-17-98-69-110-135z m124-86l-64 65 22 22 36-36c4-4 9-4 12 0l80 79 22-22z m47 23l79 79c3 3 3 9 0 12l-34 34c-4 3-9 3-12 0l-80-79-36 36c-4 4-9 4-12 0l-34-34c-4-3-4-9 0-12l24-24c-18 5-35 11-52 18 2 87 62 157 136 157 74 0 134-70 136-157-36-16-75-26-115-30z m129 63c-12 66-55 118-110 135 16 10 29 27 34 45 9 3 19 4 28 4 74 0 134-70 137-157-29-12-58-21-89-27z"/>
<glyph glyph-name="angle-down" unicode="&#77;" d="M399 302c0-3-1-5-3-7l-133-133c-2-2-5-3-7-3-2 0-5 1-7 3l-133 133c-2 2-3 4-3 7 0 2 1 4 3 6l15 15c1 1 4 2 6 2 3 0 5-1 7-2l112-113 112 113c2 1 4 2 7 2 2 0 5-1 6-2l15-15c2-2 3-4 3-6z"/>
<glyph glyph-name="angle-left" unicode="&#80;" d="M344 357c0-3-1-5-3-7l-112-112 112-113c2-1 3-4 3-6 0-3-1-5-3-7l-14-14c-2-2-5-3-7-3-2 0-5 1-7 3l-133 133c-2 2-3 4-3 7 0 2 1 4 3 6l133 133c2 2 5 3 7 3 2 0 5-1 7-3l14-14c2-2 3-4 3-6z"/>
<glyph glyph-name="angle-right" unicode="&#81;" d="M335 238c0-3-1-5-3-7l-133-133c-2-2-5-3-7-3-2 0-5 1-7 3l-14 14c-2 2-3 4-3 7 0 2 1 5 3 6l112 113-112 112c-2 2-3 4-3 7 0 2 1 4 3 6l14 14c2 2 5 3 7 3 2 0 5-1 7-3l133-133c2-2 3-4 3-6z"/>
<glyph glyph-name="angle-up" unicode="&#82;" d="M399 174c0-3-1-5-3-7l-15-14c-1-2-4-3-6-3-3 0-5 1-7 3l-112 112-112-112c-2-2-4-3-7-3-2 0-5 1-6 3l-15 14c-2 2-3 4-3 7 0 2 1 4 3 6l133 133c2 2 5 3 7 3 2 0 5-1 7-3l133-133c2-2 3-4 3-6z"/>
<glyph glyph-name="calendar" unicode="&#83;" d="M401 297c0-11-10-20-21-20-12 0-21 9-21 20 0 12 9 21 21 21 11 0 21-9 21-21z m31 175l-26 0 0 20c0 11-9 20-20 20-11 0-20-9-20-20l0-20-91 0 0 20c0 11-9 20-20 20-11 0-20-9-20-20l0-20-90 0 0 20c0 11-9 20-20 20-11 0-20-9-20-20l0-20-25 0c-44 0-80-36-80-80l0-312c0-44 36-80 80-80l153 0c11 0 20 9 20 20 0 11-9 20-20 20l-153 0c-22 0-40 18-40 40l0 312c0 22 18 40 40 40l25 0 0-20c0-7 4-14 10-18 6-3 14-3 20 0 6 4 10 11 10 18l0 20 90 0 0-20c0-11 9-20 20-20 11 0 20 9 20 20l0 20 91 0 0-20c0-7 4-14 10-18 6-3 14-3 20 0 6 4 10 11 10 18l0 20 26 0c22 0 40-18 40-40l0-114c0-11 9-20 20-20 11 0 20 9 20 20l0 114c0 44-36 80-80 80z m-41-230c-67 0-121-54-121-121 0-67 54-121 121-121 67 0 121 54 121 121 0 67-54 121-121 121z m0-202c-45 0-81 36-81 81 0 45 36 81 81 81 45 0 81-36 81-81 0-45-36-81-81-81z m29 101l-9 0 0 21c0 11-9 20-20 20-11 0-20-9-20-20l0-41c0-5 2-10 6-14 4-4 9-6 14-6l29 0c11 0 20 9 20 20 0 11-9 20-20 20z m-102 156c0-11-9-20-21-20-11 0-20 9-20 20 0 12 9 21 20 21 12 0 21-9 21-21z m-83-82c0-12-9-21-20-21-12 0-21 9-21 21 0 11 9 20 21 20 11 0 20-9 20-20z m-82 82c0-11-9-20-21-20-11 0-21 9-21 20 0 12 10 21 21 21 12 0 21-9 21-21z m0-82c0-12-9-21-21-21-11 0-21 9-21 21 0 11 10 20 21 20 12 0 21-9 21-20z m0-83c0-11-9-21-21-21-11 0-21 10-21 21 0 12 10 21 21 21 12 0 21-9 21-21z m82 0c0-11-9-21-20-21-12 0-21 10-21 21 0 12 9 21 21 21 11 0 20-9 20-21z m0 165c0-11-9-20-20-20-12 0-21 9-21 20 0 12 9 21 21 21 11 0 20-9 20-21z"/>
<glyph glyph-name="import-file" unicode="&#119;" d="M350 292c0 11-9 20-20 20l-206 0c-11 0-20-9-20-20 0-11 9-20 20-20l206 0c11 0 20 9 20 20z m-226-60c-11 0-20-9-20-20 0-11 9-20 20-20l125 0c11 0 20 9 20 20 0 11-9 20-20 20z m47-192l-67 0c-22 0-40 18-40 40l0 352c0 22 18 40 40 40l246 0c22 0 40-18 40-40l0-123c0-11 9-20 20-20 11 0 20 9 20 20l0 123c0 44-36 80-80 80l-246 0c-44 0-80-36-80-80l0-352c0-44 36-80 80-80l67 0c11 0 20 9 20 20 0 11-9 20-20 20z m159 352l-206 0c-11 0-20-9-20-20 0-11 9-20 20-20l206 0c11 0 20 9 20 20 0 11-9 20-20 20z m-86-284l70-70c2-2 4-3 6-3 3 0 5 1 6 3 2 1 3 4 3 6l0 35 31 0c65 0 105 18 119 55 6 15 8 30 8 46 0 15-6 35-18 61 0 1 0 2-1 4-1 1-1 3-2 4 0 1-1 2-2 3-1 1-2 2-4 2-1 0-2 0-3-1-1-1-1-2-1-4 0-1 0-2 0-3 1-1 1-2 1-3 0-7 0-12 0-17 0-9 0-17-2-25-1-7-4-13-7-19-2-5-6-10-11-14-4-4-9-7-14-9-6-3-12-5-18-6-7-2-14-3-21-3-7-1-15-1-24-1l-31 0 0 35c0 4-2 7-5 8-4 2-7 1-10-2l-70-70c-2-1-2-4-2-6 0-2 0-4 2-6z"/>
<glyph glyph-name="partially-approved" unicode="&#84;" d="M341 299c0 11-9 20-20 20l-199 0c-11 0-19-9-19-20 0-10 8-19 19-19l199 0c11 0 20 9 20 19z m-219-58c-10 0-19-9-19-19 0-11 9-19 19-19l121 0c11 0 19 8 19 19 0 10-8 19-19 19z m46-185l-65 0c-21 0-39 17-39 38l0 341c0 21 18 38 39 38l238 0c21 0 38-17 38-38l0-119c0-11 9-20 20-20 10 0 19 9 19 20l0 119c0 42-35 77-77 77l-238 0c-43 0-77-35-77-77l0-341c0-42 34-77 77-77l65 0c10 0 19 9 19 19 0 11-9 20-19 20z m153 340l-199 0c-11 0-19-9-19-19 0-11 8-20 19-20l199 0c11 0 20 9 20 20 0 10-9 19-20 19z m126-290c1-44-33-80-76-83 23 22 35 52 34 83 2 30-11 60-34 80 43-2 76-38 76-80z m-105-102l3-1 0 0c43-11 88 6 113 42 25 36 25 85 0 121-25 36-70 53-113 42l0 0-3-1c-45-13-76-54-76-101 0-48 31-89 76-102z"/>
<glyph glyph-name="add-user" unicode="&#85;" d="M252 288c-2 0-3 0-5 0-1 0-3 0-5 0-50 3-89 45-88 95 2 50 43 90 93 90 50 0 92-40 93-90 1-50-38-92-88-95z m103-24c-10 4-19 8-29 12 45 34 64 93 46 146-18 54-68 90-125 90-56 0-107-36-124-90-18-53 0-112 46-146-86-28-149-100-168-187-3-18 1-36 12-49 11-14 28-22 46-22l237 0c7 0 14 3 17 9 4 6 4 14 0 20-3 6-10 10-17 9l-237 0c-6 0-12 3-16 8-4 4-5 11-4 17 21 96 104 166 203 169 2 0 3 0 5 0 2 0 4 0 5 0 30-1 59-8 86-21 10-4 21 0 26 9 5 10 0 21-9 26z m134-131l-63 0 0 63c0 13-11 23-23 23-13 0-23-10-23-23l0-63-64 0c-13 0-23-11-23-23 0-13 10-24 23-24l64 0 0-63c0-13 10-23 23-23 12 0 23 10 23 23l0 63 63 0c13 0 23 11 23 24 0 12-10 23-23 23z"/>
<glyph glyph-name="approved" unicode="&#86;" d="M366 292c0 11-9 20-20 20l-207 0c-11 0-20-9-20-20 0-11 9-20 20-20l207 0c11 0 20 9 20 20z m-227-60c-11 0-20-9-20-20 0-11 9-20 20-20l126 0c11 0 20 9 20 20 0 11-9 20-20 20z m47-192l-67 0c-22 0-40 18-40 40l0 352c0 22 18 40 40 40l247 0c23 0 41-18 41-40l0-123c0-11 9-20 20-20 11 0 20 9 20 20l0 123c0 44-36 80-81 80l-247 0c-44 0-80-36-81-80l0-352c1-44 37-80 81-80l67 0c11 0 20 9 20 20 0 11-9 20-20 20z m160 352l-207 0c-11 0-20-9-20-20 0-11 9-20 20-20l207 0c11 0 20 9 20 20 0 11-9 20-20 20z m-67-353l-63 63c-8 8-8 21 0 29 8 8 21 8 29 0l60-60 130 151c8 8 21 8 29 0 8-8 8-21 0-29l-156-182z"/>
<glyph glyph-name="clone" unicode="&#87;" d="M398 404l-54 0 0 55c6-7 49-50 54-55z m-159-50l54-55-54 0z m76-323l-233 0 0 345 125 0 0-93c0-8 7-15 16-15l92 0z m105 105l-73 0 0 147c0 5-2 8-5 11l-108 108c-3 3-7 5-11 5l-36 0 0 74 125 0 0-93c0-8 7-15 16-15l92 0z m27 263l-108 108c-3 3-7 5-11 5l-156 0c-4 0-8-2-11-5-3-2-5-6-5-11l0-89-89 0c-9 0-16-7-16-16l0-375c0-9 7-16 16-16l264 0c9 0 16 7 16 16l0 89 89 0c9 0 16 7 16 16l0 267c0 4-2 8-5 11z"/>
<glyph glyph-name="rejected" unicode="&#88;" d="M137 354c-11 0-20 9-20 20 0 11 9 20 20 20l203 0c10 0 19-9 19-20 0-11-9-20-19-20z m0-78c-11 0-20 8-20 19 0 11 9 20 20 20l203 0c10 0 19-9 19-20 0-11-9-19-19-19z m0-79c-11 0-20 9-20 20 0 10 9 19 20 19l123 0c11 0 20-9 20-19 0-11-9-20-20-20z m-20-189c-43 0-79 35-79 79l0 346c0 44 36 79 79 79l242 0c44 0 79-35 79-79l0-121c0-11-9-20-20-20-10 0-19 9-19 20l0 121c0 22-18 40-40 40l-242 0c-22 0-39-18-39-40l0-346c0-22 17-40 39-40l92 0c10 0 19-9 19-20 0-10-9-19-19-19z m191-3c-8 7-9 19-2 27l51 57-56 51c-8 8-8 20-1 27 7 8 19 9 27 2l57-51 51 57c7 8 19 8 27 1 8-7 9-19 2-27l-51-57 57-51c7-7 8-19 1-27-7-8-20-9-28-2l-56 51-51-57c-4-4-9-6-14-6-5 0-10 2-14 5z"/>
<glyph glyph-name="view" unicode="&#89;" d="M227 259c0 12 7 23 18 27 10 5 23 2 31-6 9-8 11-21 7-31-5-11-15-18-27-18-16-1-29 12-29 28z m-61 0c1 35 21 67 53 81 32 14 70 9 96-14 3-3 5-6 5-10 0-4-1-7-3-10-6-6-15-7-21-2-11 10-25 15-40 15-33 0-60-27-59-60 0-33 27-60 60-60 33 0 60 27 60 60 0 8 6 15 14 15 8 0 15-7 15-15-1-49-41-88-90-88-49 0-89 39-90 88z m-72 51c-21-15-41-32-60-51 19-18 39-35 60-50 38-27 97-59 162-59 65 0 124 32 162 59 21 15 41 32 60 50-19 19-39 36-60 51-38 26-97 58-162 58-65 0-124-32-162-58z m-17-124c-27 18-51 40-73 64-5 5-5 13 0 19 22 23 46 45 73 64 59 42 121 64 179 64 58 0 120-22 179-64 27-19 51-41 73-64 5-6 5-14 0-19-22-24-46-46-73-64-59-42-121-65-179-65-58 0-120 23-179 65z"/>
<glyph glyph-name="left-arrow" unicode="&#90;" d="M160 255l220 220-37 37-256-257 255-255 37 37z"/>
<glyph glyph-name="location" unicode="&#49;" d="M251 512c-104-1-187-85-187-189 0-26 5-52 16-76 47-104 137-212 163-243 2-3 5-4 8-4 3 0 6 1 8 4 26 31 116 139 163 243 11 24 16 50 16 76 0 104-83 188-187 189z m0-286c-40-1-76 23-91 59-15 37-7 79 21 107 28 29 70 37 106 22 37-15 61-51 61-91 0-53-43-97-97-97z"/>
<glyph glyph-name="minus" unicode="&#50;" d="M470 294l-428 0c-23 0-42-18-42-42 0-23 19-41 42-41l428 0c23 0 42 18 42 41 0 24-19 42-42 42z"/>
<glyph glyph-name="forward" unicode="&#51;" d="M40 461l-40-39 173-167-173-167 40-39 214 206z m259 0l-41-39 173-167-173-167 41-39 213 206z"/>
<glyph glyph-name="lead-conversion" unicode="&#53;" d="M347 330c-6 0-12 0-18-1 8 70-29 138-93 168-63 31-139 18-189-32-50-50-63-126-32-189 30-64 98-101 168-93-8-68 28-134 89-165 61-31 134-21 185 24 51 46 68 118 44 182-24 64-86 106-154 106z m-182-132c-62 0-119 38-141 97-22 58-5 124 42 166 47 41 115 48 170 18 55-30 85-90 76-152-6-2-11-3-17-5 11 57-16 115-68 142-51 28-115 18-156-23-41-41-51-105-23-156 27-52 85-79 142-68-2-6-3-11-5-17-6-1-13-2-20-2z m33 38c-41-12-85-1-115 30 1 10 9 18 19 20l31 6c2 1 4 2 5 3l27-36 27 36c2-1 4-2 6-3l30-6c2 0 3-1 5-1-15-14-27-31-35-49z m-74 111c-5 0-8 4-8 8 0 5 3 8 8 8z m6 33l-6 0c-2 0-4 0-6-1-4 12-2 25 5 35 7 10 19 16 31 15l22 0c13 1 24-5 31-15 8-10 10-23 6-35-2 1-4 1-7 1l-22 0c-11 0-22 2-32 7l-1 1-2 0c-7 0-14-3-19-8z m76-17c5 0 9-3 9-8 0-4-4-8-9-8z m-16-16c0-14-11-25-25-25-14 0-25 11-25 25l0 16c0 4 3 8 7 9 11-6 24-9 37-9l6 0z m-38-39c9-3 18-3 26 0 0-1 1-2 1-3l-14-19-14 19c0 1 1 2 1 3z m94-12c-4 3-9 5-15 6l-29 6c-4 2-8 4-10 8 5 4 8 9 11 14l3 0c10 0 18 5 22 14 5 8 4 18-1 25 7 17 5 37-5 52-10 16-27 25-46 25l-22 0c-18 0-36-9-46-25-10-15-12-35-4-52-6-7-6-17-2-25 4-9 13-14 22-14l3 0c3-5 7-10 11-14-2-4-5-6-9-7l-30-7c-12-2-23-10-28-21-31 44-28 103 8 144 37 40 96 49 143 23 47-27 69-82 54-134-10-5-20-11-30-18z m101-279c-82-1-149 66-149 148 0 82 67 149 149 149 82 0 149-67 148-149 0-82-66-148-148-148z m120 278l16 3c-1 6-2 12-4 18l-16-4c2-6 3-11 4-17z m-128 143c6 0 13 3 18 8 47-26 83-68 101-118l16 5c-20 55-59 101-111 128 0 0 0 1 0 1 0 14-11 25-24 25-14 0-25-11-25-25 0-13 11-24 25-24z m0 33c4 0 8-4 8-9 0-4-4-8-8-8-5 0-9 4-9 8 0 5 4 9 9 9z m-294-254l-16-3c1-6 2-12 4-18l16 4c-2 6-3 11-4 17z m128-143c-6 0-13-3-18-8-47 26-83 68-101 118l-16-5c20-55 59-101 111-128 0 0 0-1 0-1 0-14 11-25 24-25 14 0 25 11 25 25 0 13-11 24-25 24z m0-33c-4 0-8 4-8 9 0 4 4 8 8 8 5 0 9-4 9-8 0-5-4-9-9-9z m272 197c-8 8-19 11-30 9-7-1-13-5-18-10l-91-91-26 25c-5 5-11 9-18 10-11 2-22-1-29-9-8-8-12-19-10-29 2-7 5-13 10-18l49-49c13-13 34-13 47 0l115 115c5 5 8 11 10 18 2 10-2 21-10 29z m-8-26c0-4-2-7-5-10l-115-115c-6-6-17-6-23 0l-49 49c-3 3-4 6-5 10-1 4 0 9 3 13 3 4 8 6 13 6 5 0 9-2 12-5l38-37 103 103c2 2 6 4 9 5 5 1 11-1 15-5 4-3 5-9 4-14z"/>
<glyph glyph-name="appointment" unicode="&#56;" d="M316 512c-104 0-190-81-196-184-23 1-46 0-68-5-24-4-43-22-46-46-3-23-2-46 2-68 0-4 1-9 1-12-7-7-11-18-8-28 2-10 10-18 20-21 0-3 0-7 0-10 1-3 1-6 1-8 1-4 5-7 9-6 4 1 7 4 6 9 0 2-1 4-1 6-1 17-1 35 0 52 11 8 18 20 20 33 2 6 7 11 14 13 6 2 13 1 18-4 20-17 50-17 69 0 4 3 8 5 13 5 9 0 17-6 19-14 3-13 10-25 21-33 0-17 0-35-1-52-1-24-20-42-43-43-29-2-58-2-87 0-3 0-7 1-11 2l0 0c-6 2-12 5-16 9-4 3-8 2-11-1-3-3-2-8 1-10 3-3 6-6 10-8-4-4-7-9-11-14-11-20-18-43-20-66 0-2 1-4 2-6 1-1 3-2 6-2l188 0c2 0 4 1 6 3 1 1 2 3 1 5-1 30-12 57-31 80 18 10 30 29 31 50 0 1 0 3 0 4 84-44 188-22 246 53 3 3 2 8-1 10-3 3-8 2-10-1-54-68-147-89-224-50 4 3 7 8 9 13 66-32 145-16 194 38 49 54 57 133 19 196-38 63-112 93-183 75-70-19-121-81-123-154-5 2-11 3-16 4 4 74 53 138 123 161 70 24 147 3 196-54 48-56 57-136 22-201-2-4 0-9 3-10 4-2 9-1 11 3 31 61 29 134-6 192-36 59-100 95-168 95z m-182-481l-11-8-12 8 4 24 16 0z m-11 49c3 0 6 0 9 0l-1-10-16 0-2 10c3 0 7 0 10 0z m-69-14c4 6 8 12 14 16 3-1 7-1 11-1 6-1 13-1 19-1l3-17-5-34c-1-3 0-6 3-7l9-7-33 0 0 23c0 4-3 8-7 8-5 0-8-4-8-8l0-23-23 0c3 18 8 35 17 51z m137 0c9-16 15-33 17-51l-22 0 0 23c0 4-4 8-8 8-4 0-7-4-7-8l0-23-33 0 9 7c2 1 3 4 3 7l-5 34 3 17c6 0 12 0 19 1 4 0 7 0 11 1 5-4 10-10 13-16z m-176 110c0 4 2 8 6 10 0-7-1-14 0-21-4 2-6 6-6 11z m155 77c-8 0-16-3-23-8-14-13-35-13-49 0-9 8-21 10-33 7-11-4-20-13-23-24-2-10-7-19-15-24-1 0-2-1-3-1-1 3-1 5-1 8-4 21-5 42-2 63 2 18 16 32 34 34 50 10 81 4 97-3 9-3 17-9 23-16 1-2 3-4 5-4 2-1 5 0 7 2 3 3 7 5 12 7 7 3 15 1 21-4 9-9 11-28 8-54-1-11-4-22-7-33 0 0-1 1-2 1-8 5-14 14-15 24-5 15-18 25-34 25z m55-67c3-2 6-6 6-10 0-5-2-9-6-11 0 7 0 14 0 21z m-59 130c0 67 45 126 110 144 65 18 134-9 169-67 34-58 26-132-21-181-47-49-120-60-180-28-1 5-4 10-9 13 4 12 6 24 8 37 4 32 0 54-13 67-13 12-33 13-47 2-5 5-11 9-17 12 0 1 0 1 0 1z m-44-189c11 0 21 6 26 16 1 3 0 7-4 9-4 2-8 0-10-3-2-5-7-8-12-8-5 0-10 3-12 8-2 3-6 5-9 3-4-2-6-6-4-9 5-10 15-16 25-16z m-13 56c0 7-4 12-9 12-4 0-8-5-8-12 0-7 4-13 8-13 5 0 9 6 9 13z m66 0c0 7-4 12-8 12-5 0-9-5-9-12 0-7 4-13 9-13 4 0 8 6 8 13z m134 263c1-3 4-5 7-5 3 0 6 2 7 5 1 3 0 6-3 8-2 2-5 2-8 1-3-2-4-6-3-9z m14-258c-2 3-5 4-8 4-3 0-5-2-6-5-1-3 0-6 3-8 2-2 5-2 8 0 3 2 4 6 3 9z m-79 216c1-3 4-5 7-5 3 0 5 2 6 5 1 3 0 6-2 8-2 2-6 2-8 1-3-2-5-6-3-9z m141-196c-2 2-6 2-8 0-3-2-4-5-3-8 1-3 4-5 7-5 3 0 6 2 7 5 1 3 0 7-3 8z m-189 170c1-2 4-4 7-4 3 0 5 2 6 5 1 3 0 6-2 8-3 2-6 2-9 0-2-2-4-5-2-9z m204-130c1-3 4-5 7-5 3 0 5 2 6 5 1 3 0 6-2 8-3 2-6 2-9 1-3-2-4-6-2-9z m-217 61c3-1 7 0 8 3 2 3 2 6 0 8-2 3-5 4-8 3-3-1-5-4-5-7 0-3 2-7 5-7z m262 1c2-2 5-2 8 0 2 2 3 5 3 8-1 3-4 5-7 5-3 0-6-1-7-4-1-3 0-7 3-9z m-45 68c1-2 4-4 7-4 3 0 5 2 6 5 1 3 0 6-2 8-3 2-6 2-9 0-3-2-4-5-2-9z m-143-173c-1 3-4 5-7 5-3-1-6-3-7-6 0-3 1-6 3-8 3-1 6-1 9 1 2 2 3 5 2 8z m120 195c3-1 6-1 9 1 2 1 3 5 2 8-1 3-4 5-7 5-3 0-6-2-7-5-1-3 0-7 3-9z m-140-23l58-51c-4-9-2-20 6-26 7-7 18-8 26-3 9 5 14 15 12 25l30 16c3 2 4 7 2 10-2 3-6 5-10 3l-29-17c-8 7-19 8-28 3l-58 51c-2 1-5 2-7 1-3-1-5-3-5-5 0-3 0-6 3-7z m79-51c5 0 8-4 8-9 0-5-3-8-8-8-5 0-9 3-9 8 0 2 1 5 3 6 1 2 4 3 6 3z"/>
<glyph glyph-name="breadcrum" unicode="&#57;" d="M47 34c-26 0-47 21-47 47 0 26 21 46 47 46l186 0c25 0 46-20 46-46 0-26-21-47-46-47z m0 180c-26 0-47 21-47 46 0 26 21 47 47 47l418 0c26 0 47-21 47-47 0-25-21-46-47-46z m0 179c-17 0-33 9-41 23-9 15-9 33 0 47 8 15 24 24 41 23l418 0c26 0 47-20 47-46 0-26-21-47-47-47z"/>
<glyph glyph-name="sorting" unicode="&#33;" d="M429 349l-31-31-131 132-131-132-31 31 162 163z m0-186l-31 31-131-132-131 132-31-31 162-163z"/>
<glyph glyph-name="tile" unicode="&#34;" d="M480 32l0 176-176 0 0-176 176 0m-272 0l0 176-176 0 0-176 176 0m272 272l0 176-176 0 0-176 176 0m-272 0l0 176-176 0 0-176 176 0m278-304l-188 0c-14 0-26 11-26 26l0 188c0 14 12 26 26 26l188 0c15 0 26-12 26-26l0-188c0-15-11-26-26-26z m-272 0l-188 0c-15 0-26 11-26 26l0 188c0 14 11 26 26 26l188 0c14 0 26-12 26-26l0-188c0-15-12-26-26-26z m272 272l-188 0c-14 0-26 12-26 26l0 188c0 15 12 26 26 26l188 0c15 0 26-11 26-26l0-188c0-14-11-26-26-26z m-272 0l-188 0c-15 0-26 12-26 26l0 188c0 15 11 26 26 26l188 0c14 0 26-11 26-26l0-188c0-14-12-26-26-26z"/>
<glyph glyph-name="settings" unicode="&#112;" d="M233 30c0 9 3 16 9 22 6 6 14 9 22 9 10 0 20-5 25-14 106 11 186 100 186 206 0 67-31 129-85 168l21 30c63-46 101-120 101-198 0-127-99-233-226-243-6-6-14-10-22-10-17 0-31 14-31 30z m-233 223c0 131 103 239 234 244 6 9 16 15 27 15 16 0 30-13 30-30 0-17-14-31-30-31-9 0-17 4-22 10-113-3-202-95-203-208 1-66 32-129 86-168l-21-29c-63 46-101 119-101 197z m241-149c-2 0-5 1-7 3-2 2-3 5-3 7l0 23c-15 3-30 9-44 18l-16-16c-4-4-10-4-14 0l-20 20c-4 4-4 10 0 14l17 16c-9 13-16 28-19 44l-23 0c-2 0-5 1-7 3-2 2-3 5-3 7l0 28c0 2 1 5 3 7 2 2 5 3 7 3l23 0c3 16 10 31 19 44l-17 16c-4 4-4 10 0 14l20 20c2 2 4 3 7 3 3 0 5-1 7-3l16-16c14 8 29 15 44 18l0 23c0 2 1 5 3 7 2 2 5 3 7 3l28 0c3 0 5-1 7-3 2-2 3-5 3-7l0-23c16-3 31-9 44-18l16 16c2 2 5 3 7 3 3 0 6-1 7-3l20-20c4-4 4-10 0-14l-16-16c9-14 15-29 18-44l23 0c5 0 10-5 10-10l0-28c0-2-1-5-3-7-2-2-4-3-7-3l-23 0c-3-16-9-31-18-44l16-16c2-2 3-5 3-7 0-3-1-5-3-7l-20-20c-4-4-10-4-14 0l-16 16c-13-9-28-15-44-18l0-23c0-2-1-5-3-7-2-2-4-3-7-3z m-64 153c3-42 36-75 78-78 42 3 75 36 78 78-3 42-36 75-78 78-42-3-75-36-78-78z"/>
<glyph glyph-name="hold" unicode="&#35;" d="M104 162c-93 137-105 282-27 338l41 11c9 2 17-1 21-9l42-88c4-9 4-18 0-27l-11-23c-21-15-55-47 12-146 68-99 109-76 130-61l25 2c9 1 18-3 24-9l67-71c5-6 6-15 2-22l-26-36c-19-14-42-21-66-21-74 0-164 60-234 162z m314 118l0 129c0 17 13 31 30 31 17 0 31-14 31-31l0-129c0-17-14-31-31-31-17 0-30 14-30 31z m-102 0l0 129c0 17 14 31 30 31 17 0 31-14 31-31l0-129c0-17-14-31-31-31-16 0-30 14-30 31z"/>
<glyph glyph-name="transfer-call" unicode="&#36;" d="M296 101l-17 20c-4 4-4 10 0 14l37 46c4 4 9 6 15 6l15 0c14-8 41-19 77 44 37 62 14 79 0 87l-8 13c-3 5-3 11-1 16l21 55c2 5 7 7 12 7l26-5c52-29 52-116 1-202-40-69-96-110-143-110-12 0-24 3-35 9z m-259 104c-50 85-49 171 1 200l26 4c5 1 10-2 12-6l21-54c2-6 2-11-1-16l-8-13c-13-8-36-25 0-87 36-61 62-50 76-43l15 1c6-1 11-3 15-7l37-45c3-4 3-10 0-14l-17-20c-11-6-23-9-35-9-47 0-102 41-142 109z m208 12c-2 2-3 5-3 8 0 3 2 5 4 7l22 21-73 0c-6 0-11 4-11 10 0 6 5 11 11 11l73 0-22 20c-2 2-4 5-4 8 0 3 1 5 3 7 4 5 11 5 15 1l43-39c3-2 4-5 4-8 0-3-1-5-4-8l-43-38c-2-2-5-3-7-3-3 0-6 1-8 3z"/>
<glyph glyph-name="add-folder" unicode="&#37;" d="M22 161l35 0c-6 7-9 17-9 26l0 211c0 24 20 44 44 44l325 0 0 26c0 5-4 9-9 9l-246 0c-14 0-26 12-26 26 0 3-1 5-3 6-1 2-4 3-6 3l-105 0c-5 0-9-4-9-9l0-334c0-4 4-8 9-8z m202 0c3 49 30 93 72 119 42 25 94 28 138 8l0 127c0 5-4 9-8 9l-334 0c-15 0-27-12-27-26l0-211c0-14 12-26 27-26z m-141 237c0 5 4 9 9 9l35 0 0-18-26 0 0-26-18 0z m0-53l18 0 0-17-18 0z m287-345c-75 0-135 60-135 135 0 74 60 134 135 135 74-1 135-61 135-135 0-75-61-135-135-135z m-90 152c-10 0-18-7-18-17 0-10 8-18 18-18l72 0 0-72c0-10 8-18 18-18 10 0 17 8 17 18l0 72 73 0c10 0 18 8 18 18 0 10-8 17-18 17l-73 0 0 73c0 10-7 17-17 17-10 0-18-7-18-17l0-73z"/>
<glyph glyph-name="upload" unicode="&#38;" d="M383 379l-112 128c-3 3-7 5-12 5-4 0-9-2-12-5l-112-128c-4-5-5-12-2-18 2-5 8-9 14-9l64 0 0-208c0-4 2-8 5-11 3-3 7-5 11-5l64 0c9 0 16 7 16 16l0 208 64 0c7 0 12 4 15 9 2 6 1 13-3 18z m52-219l0-96-352 0 0 96-64 0 0-128c0-18 15-32 32-32l416 0c18 0 32 14 32 32l0 128z"/>
<glyph glyph-name="file-download" unicode="&#39;" d="M375 290l0 97c-1 3-2 6-4 8l-108 114c-2 2-5 3-8 3l-172 0c-15 0-30-6-41-17-11-11-16-25-16-41l0-325c0-16 6-30 16-41 11-11 26-17 41-17l136 0c34-57 103-84 168-65 64 19 107 80 104 147-3 67-51 124-116 137z m-109 185l73-77-48 0c-14 0-25 11-25 26z m-183-382c-10 0-19 3-26 10-6 7-10 16-10 26l0 325c0 10 4 19 10 26 7 7 16 11 26 11l161 0 0-67c0-26 21-47 47-48l62 0 0-83c-3 0-6 1-8 1-36-1-71-14-98-37l-20-21c-7-11-13-22-18-34l-97 0c-6 0-10-4-10-10 0-6 4-11 10-11l90 0c-7-29-5-60 6-88l-125 0z m262-72c-70 0-126 56-126 126 0 69 56 125 126 125 69 0 125-56 125-125 0-70-56-126-125-126z m-233 287l109 0c6 0 11 5 11 11 0 6-5 11-11 11l-109 0c-6 0-11-5-11-11 0-6 5-11 11-11z m2-65l138 0c5-1 9 1 12 5 3 3 3 8 0 12-3 4-7 6-12 5l-138 0c-4 1-9-1-11-5-3-4-3-9 0-12 2-4 7-6 11-5z m285-93l-44-47 0 117c0 6-5 11-11 11-6 0-11-5-11-11l0-117-44 47c-4 5-11 5-15 1-3-2-4-5-4-8 0-2 1-5 3-7l63-68c2-2 5-4 8-4 3 0 6 2 8 4l63 68c3 2 4 7 2 10-1 4-4 7-7 8-4 0-8-1-11-4z"/>
<glyph glyph-name="followup" unicode="&#54;" d="M445 158l-47-68-34 28c-4 3-9 2-12-2-3-3-3-9 1-12l41-33c1-1 3-2 5-2 1 0 1 0 1 0 3 0 5 2 6 4l53 76c3 4 2 9-2 12-4 2-9 1-12-3z m-44 64c-61 0-111-50-111-111 0-61 50-111 111-111 61 0 111 50 111 111 0 61-50 111-111 111z m0-205c-52 0-94 42-94 94 0 52 42 94 94 94 52 0 94-42 94-94 0-52-42-94-94-94z m-378 438l0-39 406 0 0 39-23 0 0-34-90 0 0 34-180 0 0-34-89 0 0 34-24 0m38 57l61 0c5 0 8-4 8-9l0-25 192 0 0 25c0 5 4 9 9 9l60 0c5 0 9-4 9-9l0-25 44 0c4 0 8-4 8-9l0-76-452 0 0 76c0 5 4 9 9 9l43 0 0 25c0 5 4 9 9 9z m52-68l0 51-43 0 0-51z m270 0l0 51-44 0 0-51z m-123-412c-10 15-16 33-20 51l0-38-202 0 0 285 376 0 0-60c5-1 10-1 15-2l0 76-406 0 0-312 237 0m-20 107c6 29 19 55 38 77l-38 0 0-77m68-130l-299 0c-5 0-9 3-9 8l0 341c0 5 4 9 9 9l435 0c4 0 8-4 8-9l0-121c-16 7-33 10-52 10-3 0-6 0-9 0l0 60-69 0 0-68 30 0c-53-19-91-69-91-128 0-41 18-77 47-102z m-160 128l0-69 69 0 0 69z m-87 0l0-69 69 0 0 69z m87 85l0-68 69 0 0 68z m-87 0l0-68 69 0 0 68z m174 85l0-68 69 0 0 68z m-87 0l0-68 69 0 0 68z m-87 0l0-68 69 0 0 68z"/>
<glyph glyph-name="outgoing-call" unicode="&#117;" d="M333 61c-8-6-32-22-86 13-100 65-170 169-192 286-9 48-3 73 18 88 12 10 28 14 43 12 15-2 29-10 38-23 27-51-17-80-28-87-7-4-12-11-11-20 5-62 73-162 126-187 8-4 16-2 22 3 8 9 54 41 89-3 19-24 9-62-19-82z m-86 125c-36 25-80 90-90 135 0 1 80 55 29 139-17 26-46 41-76 41-22 0-42-7-59-19-45-32-43-83-35-128 23-134 110-254 211-315 23-14 50-28 79-28 18 0 35 6 50 17 45 32 58 100 29 138-61 77-137 20-138 20z m19 164l154 0-47 44c-9 8-9 22-1 31 8 9 22 10 31 2l91-83c4-4 7-10 7-16 0-7-3-13-7-17l-91-83c-9-7-23-6-32 1-4 5-6 11-6 17 0 6 3 11 8 15l47 44-154 0c-13 0-23 10-23 23 0 12 10 22 23 22z"/>
<glyph glyph-name="incoming-call" unicode="&#40;" d="M333 61c-8-6-32-22-86 13-100 65-170 169-192 286-9 48-3 73 18 88 12 10 28 14 43 12 15-2 29-10 38-23 27-51-17-80-28-87-7-4-12-11-11-20 5-62 73-162 126-187 8-4 16-2 22 3 8 9 54 41 89-3 19-24 9-62-19-82z m-86 125c-36 25-80 90-90 135 0 1 80 55 29 139-17 26-46 41-76 41-22 0-42-7-59-19-45-32-43-83-35-128 23-134 110-254 211-315 23-14 50-28 79-28 18 0 35 6 50 17 45 32 58 100 29 138-61 77-137 20-138 20z m231 164l-154 0 47 44c9 8 10 22 1 31-8 9-22 10-31 2l-90-83c-5-4-8-10-8-16 0-7 3-13 8-17l90-83c9-7 23-6 32 1 4 5 6 11 6 17 0 6-3 11-8 15l-47 44 154 0c13 0 23 10 23 23 0 12-10 22-23 22z"/>
<glyph glyph-name="scan-code" unicode="&#42;" d="M491 326c-12 0-22 10-22 22l0 101c0 11-9 20-20 20l-101 0c-12 0-21 10-21 22 0 11 9 21 21 21l101 0c35 0 63-28 63-63l0-101c0-12-10-22-21-22z m-470 0c-11 0-21 10-21 22l0 101c0 35 28 63 63 63l101 0c12 0 21-10 21-21 0-12-9-22-21-22l-101 0c-11 0-20-9-20-20l0-101c0-12-10-22-22-22z m428-326l-101 0c-12 0-21 10-21 21 0 12 9 22 21 22l101 0c11 0 20 9 20 20l0 101c0 12 10 22 22 22 11 0 21-10 21-22l0-101c0-35-28-63-63-63z m-285 0l-101 0c-35 0-63 28-63 63l0 101c0 12 10 22 21 22 12 0 22-10 22-22l0-101c0-5 2-10 6-14 3-4 9-6 14-6l101 0c12 0 22-10 22-22 0-11-10-21-22-21z m198 92l-220 0c-24-1-44 18-44 42l0 238c0 24 20 43 44 42l220 0c24 1 43-18 44-42l0-238c-1-24-20-43-44-42z m-194 49l168 0c19 0 19 0 19 19l0 184c0 21 0 20-19 20l-168 0c-20 0-19 0-19-20l0-184c0-19 0-19 19-19z"/>
<glyph glyph-name="scan-qr-code" unicode="&#43;" d="M491 326c-12 0-22 10-22 22l0 101c0 11-9 20-20 20l-101 0c-12 0-21 10-21 22 0 11 9 21 21 21l101 0c35 0 63-28 63-63l0-101c0-12-10-22-21-22z m-470 0c-11 0-21 10-21 22l0 101c0 35 28 63 63 63l101 0c12 0 21-10 21-21 0-12-9-22-21-22l-101 0c-11 0-20-9-20-20l0-101c0-12-10-22-22-22z m428-326l-101 0c-12 0-21 10-21 21 0 12 9 22 21 22l101 0c11 0 20 9 20 20l0 101c0 12 10 22 22 22 11 0 21-10 21-22l0-101c0-35-28-63-63-63z m-285 0l-101 0c-35 0-63 28-63 63l0 101c0 12 10 22 21 22 12 0 22-10 22-22l0-101c0-5 2-10 6-14 3-4 9-6 14-6l101 0c12 0 22-10 22-22 0-11-10-21-22-21z m38 274l-106 0c-12 0-21 9-21 21l0 121c0 12 9 21 21 21l106 0c12 0 22-9 22-21l0-121c0-12-10-21-22-21z m-85 43l64 0 0 78-64 0z m299-242l-107 0c-11 0-21 9-21 21l0 79c0 11 10 21 21 21 12 0 22-10 22-21l0-58 64 0 0 64-26 0c-11 0-21 10-21 22 0 11 10 21 21 21l47 0c12 0 21-10 21-21l0-107c0-12-9-21-21-21z m0 232l-87 0c-12 0-22 10-22 22l0 87c0 12 10 21 22 21l87 0c12 0 21-9 21-21l0-87c0-12-9-22-21-22z m-66 43l45 0 0 45-45 0z m-84-140l-170 0c-12 0-21 10-21 22 0 12 9 21 21 21l149 0 0 144c0 11 9 21 21 21 12 0 22-10 22-21l0-165c0-12-10-22-22-22z m59 6c-11 0-21 9-21 21l0 29c0 12 10 22 21 22l96 0c12 0 22-10 22-22 0-12-10-21-22-21l-74 0 0-8c0-12-10-21-22-21z m-69-114c-11 0-21 10-21 22l0 48c0 12 10 22 21 22 12 0 22-10 22-22l0-48c0-12-10-22-22-22z m-53-27l-107 0c-12 0-21 9-21 21l0 78c0 11 9 21 21 21l107 0c11 0 21-10 21-21l0-78c0-12-10-21-21-21z m-86 42l64 0 0 35-64 0z"/>
<glyph glyph-name="time" unicode="&#44;" d="M301 400c-83 0-150-67-150-150 0-83 67-150 150-150 83 0 150 67 150 150 0 83-67 150-150 150z m0-270c-66 0-120 53-120 120 0 66 54 120 120 120 66 0 120-54 120-120 0-66-54-120-120-120z m150 269c-40 40-93 62-149 62l-1 0c-43 0-84-13-119-37l-102 0c-26 0-46-21-46-46 0-25 20-45 46-45l27 0c-4-9-7-17-9-26l-52 0c-26 0-46-20-46-45 0-25 20-46 46-46l47 0c1-8 3-17 5-25l0 0c-25 0-46-21-46-46 0-25 21-45 46-45l55 0c82-82 216-82 298 0 82 83 82 217 0 299z m-150-330c-50 0-97 20-131 56l-5 5-67 0c-9 0-15 7-15 15 0 9 6 16 15 16l44 0-9 20c-6 17-11 34-12 52l-1 13-74 0c-6 0-11 3-14 8-3 5-3 11 0 16 3 5 8 7 14 7l76 0 2 12c4 18 11 35 20 51l13 23-77 0c-6 0-11 3-14 7-3 5-3 11 0 16 3 5 8 8 14 8l111 0 4 3c31 22 68 34 106 34l0 0c100-1 180-82 180-181 0-100-81-181-180-181z m15 266l-30 0 0-100 72 0 0 30-42 0z"/>
<glyph glyph-name="exclamation-mark" unicode="&#58;" d="M249 478c-135 0-249-93-249-212 2-69 38-132 97-168l-40-48c-5-6-5-14-1-20 4-6 11-9 18-7l124 35c153-28 300 71 300 208 0 119-114 212-249 212z m-49-387c-2 1-5 1-7 0l-77-21 19 21c3 4 4 9 3 14-1 5-4 9-8 11-57 29-94 86-97 150 0 98 97 179 216 179 119 0 216-81 216-179 0-116-130-201-265-175z m49 274c-11 0-19-6-19-17 0-31 4-77 4-109 0-8 7-11 15-11 7 0 16 3 16 11 0 32 3 78 3 109 0 5-2 9-6 13-3 3-8 4-13 4z m1-156c-12 0-21-9-21-20 0-12 9-21 21-21 11 0 20 9 20 21 0 11-9 20-20 20z"/>
<glyph glyph-name="email" unicode="&#47;" d="M336 254l171-109 0 221z m-336 112l0-221 171 108z m476 65l-444 0c-16-1-29-12-31-27l253-167 252 167c-2 15-15 26-30 27z m-169-197l-45-29c-5-4-12-4-17 0l-45 29-199-126c2-15 15-26 31-26l444 0c15 0 28 11 30 26z"/>
<glyph glyph-name="add-ideal-mode" unicode="&#45;" d="M256 6c-34 0-67 6-97 19-30 13-57 31-80 54-23 23-41 50-54 80-13 30-19 63-19 97 0 34 6 67 19 97 13 30 31 57 54 80 23 23 50 41 80 54 30 13 63 19 97 19 34 0 67-6 97-19 30-13 57-31 80-54 23-23 41-50 54-80 13-30 19-63 19-97 0-34-6-67-19-97-13-30-31-57-54-80-23-23-50-41-80-54-30-13-63-19-97-19z m0 495c-33 0-65-7-95-19-29-13-56-30-78-53-23-22-40-49-53-78-12-30-19-62-19-95 0-33 7-65 19-95 13-29 30-56 53-78 22-23 49-40 78-53 30-12 62-19 95-19 33 0 65 7 95 19 29 13 56 30 78 53 23 22 40 49 53 78 12 30 19 62 19 95 0 33-7 65-19 95-13 29-30 56-53 78-22 23-49 40-78 53-30 12-62 19-95 19m0 11c141 0 256-115 256-256 0-141-115-256-256-256-141 0-256 115-256 256 0 141 115 256 256 256z m84-240l-68 0 0 68c0 9-7 16-16 16-9 0-16-7-16-16l0-68-68 0c-6 1-11-3-14-8-3-5-3-11 0-16 3-5 8-9 14-8l68 0 0-68c0-9 7-16 16-16 9 0 16 7 16 16l0 68 68 0c9 0 16 7 16 16 0 9-7 16-16 16z"/>
<glyph glyph-name="quick-action-select" unicode="&#45;" d="M256 512c-141 0-256-115-256-256 0-141 115-256 256-256 141 0 256 115 256 256 0 141-115 256-256 256z m67-367c-6 0-11 5-11 11l0 33c0 6 5 11 11 11l33 0c6 0 11-5 11-11l0-33c0-6-5-11-11-11z m-84 0c-6 0-11 5-11 11l0 33c0 6 5 11 11 11l33 0c6 0 11-5 11-11l0-33c0-6-5-11-11-11z m-83 0c-6 0-11 5-11 11l0 33c0 6 5 11 11 11l33 0c6 0 11-5 11-11l0-33c0-6-5-11-11-11z m167 84c-6 0-11 5-11 11l0 33c0 6 5 11 11 11l33 0c6 0 11-5 11-11l0-33c0-6-5-11-11-11z m-84 0c-6 0-11 5-11 11l0 33c0 6 5 11 11 11l33 0c6 0 11-5 11-11l0-33c0-6-5-11-11-11z m-83 0c-6 0-11 5-11 11l0 33c0 6 5 11 11 11l33 0c6 0 11-5 11-11l0-33c0-6-5-11-11-11z m167 83c-6 0-11 5-11 11l0 33c0 6 5 11 11 11l33 0c6 0 11-5 11-11l0-33c0-6-5-11-11-11z m-84 0c-6 0-11 5-11 11l0 33c0 6 5 11 11 11l33 0c6 0 11-5 11-11l0-33c0-6-5-11-11-11z m-83 0c-6 0-11 5-11 11l0 33c0 6 5 11 11 11l33 0c6 0 11-5 11-11l0-33c0-6-5-11-11-11z"/>
<glyph glyph-name="quick-action-ideal" unicode="&#46;" d="M256 6c-34 0-67 6-97 19-30 13-57 31-80 54-23 23-41 50-54 80-13 30-19 63-19 97 0 34 6 67 19 97 13 30 31 57 54 80 23 23 50 41 80 54 30 13 63 19 97 19 34 0 67-6 97-19 30-13 57-31 80-54 23-23 41-50 54-80 13-30 19-63 19-97 0-34-6-67-19-97-13-30-31-57-54-80-23-23-50-41-80-54-30-13-63-19-97-19z m0 495c-33 0-65-7-95-19-29-13-56-30-78-53-23-22-40-49-53-78-12-30-19-62-19-95 0-33 7-65 19-95 13-29 30-56 53-78 22-23 49-40 78-53 30-12 62-19 95-19 33 0 65 7 95 19 29 13 56 30 78 53 23 22 40 49 53 78 12 30 19 62 19 95 0 33-7 65-19 95-13 29-30 56-53 78-22 23-49 40-78 53-30 12-62 19-95 19m0 11c141 0 256-115 256-256 0-141-115-256-256-256-141 0-256 115-256 256 0 141 115 256 256 256z m67-367c-6 0-11 5-11 11l0 33c0 6 5 11 11 11l33 0c6 0 11-5 11-11l0-33c0-6-5-11-11-11z m-84 0c-6 0-11 5-11 11l0 33c0 6 5 11 11 11l33 0c6 0 11-5 11-11l0-33c0-6-5-11-11-11z m-83 0c-6 0-11 5-11 11l0 33c0 6 5 11 11 11l33 0c6 0 11-5 11-11l0-33c0-6-5-11-11-11z m167 84c-6 0-11 5-11 11l0 33c0 6 5 11 11 11l33 0c6 0 11-5 11-11l0-33c0-6-5-11-11-11z m-84 0c-6 0-11 5-11 11l0 33c0 6 5 11 11 11l33 0c6 0 11-5 11-11l0-33c0-6-5-11-11-11z m-83 0c-6 0-11 5-11 11l0 33c0 6 5 11 11 11l33 0c6 0 11-5 11-11l0-33c0-6-5-11-11-11z m167 83c-6 0-11 5-11 11l0 33c0 6 5 11 11 11l33 0c6 0 11-5 11-11l0-33c0-6-5-11-11-11z m-84 0c-6 0-11 5-11 11l0 33c0 6 5 11 11 11l33 0c6 0 11-5 11-11l0-33c0-6-5-11-11-11z m-83 0c-6 0-11 5-11 11l0 33c0 6 5 11 11 11l33 0c6 0 11-5 11-11l0-33c0-6-5-11-11-11z"/>
<glyph glyph-name="quick-action-ideal" unicode="&#46;" d="M256 0c-68 0-133 27-181 75-48 48-75 113-75 181 0 68 27 133 75 181 48 48 113 75 181 75 68 0 133-27 181-75 48-48 75-113 75-181 0-68-27-133-75-181-48-48-113-75-181-75z m0 501c-135 0-245-110-245-245 0-135 110-245 245-245 135 0 245 110 245 245 0 135-110 245-245 245z m67-356c-6 0-11 5-11 11l0 33c0 6 5 11 11 11l33 0c6 0 11-5 11-11l0-33c0-6-5-11-11-11z m-84 0c-6 0-11 5-11 11l0 33c0 6 5 11 11 11l33 0c6 0 11-5 11-11l0-33c0-6-5-11-11-11z m-83 0c-6 0-11 5-11 11l0 33c0 6 5 11 11 11l33 0c6 0 11-5 11-11l0-33c0-6-5-11-11-11z m167 84c-6 0-11 5-11 11l0 33c0 6 5 11 11 11l33 0c6 0 11-5 11-11l0-33c0-6-5-11-11-11z m-84 0c-6 0-11 5-11 11l0 33c0 6 5 11 11 11l33 0c6 0 11-5 11-11l0-33c0-6-5-11-11-11z m-83 0c-6 0-11 5-11 11l0 33c0 6 5 11 11 11l33 0c6 0 11-5 11-11l0-33c0-6-5-11-11-11z m167 83c-6 0-11 5-11 11l0 33c0 6 5 11 11 11l33 0c6 0 11-5 11-11l0-33c0-6-5-11-11-11z m-84 0c-6 0-11 5-11 11l0 33c0 6 5 11 11 11l33 0c6 0 11-5 11-11l0-33c0-6-5-11-11-11z m-83 0c-6 0-11 5-11 11l0 33c0 6 5 11 11 11l33 0c6 0 11-5 11-11l0-33c0-6-5-11-11-11z"/>
<glyph glyph-name="ticket" unicode="&#55;" d="M196 509l28-28 28 28c2 2 5 3 8 3 2 0 5-1 7-3l28-28 28 28c2 2 4 3 7 3 3 0 5-1 7-3l28-28 28 28c2 2 5 3 7 3 3 0 5-1 7-3l29-28 28 28c4 4 10 4 14 0 1-2 2-5 2-7l0-450c0-29-23-52-51-52l-352 0c-28 0-51 23-51 52l0 204c0 3 1 5 3 7 1 2 4 3 7 3l73 0 0 236c0 4 2 8 6 9 4 2 8 1 11-2l28-28 28 28c2 2 5 3 7 3 3 0 6-1 7-3z m21-49l-28 28-28-28c-2-2-4-3-7-3-3 0-5 1-7 3l-18 18 0-222c0 0 0 0 0 0l0-204c0-12-4-23-11-32l311 0c17 0 31 14 31 32l0 426-18-18c-2-2-4-3-7-3-2 0-5 1-7 3l-28 28-28-28c-2-2-5-3-7-3-3 0-5 1-7 3l-28 28-29-28c-1-2-4-3-7-3-2 0-5 1-7 3l-28 28-28-28c-2-2-4-3-7-3-3 0-5 1-7 3z m-108-408l0 194-64 0 0-194c0-18 15-32 32-32 18 0 32 14 32 32z m256 375c3-3 3-8 0-11l-74-84c-2-1-4-2-6-2-2 0-4 1-6 2l-42 43c-3 3-3 8 0 11 2 1 4 2 6 2 2 0 4-1 6-2l36-37 69 78c1 2 3 2 5 2 2 0 4 0 6-2z m-170-74l19 0c6 0 10-4 10-10 0-5-4-10-10-10l-19 0c-4 0-7 2-9 5-2 3-2 7 0 10 2 3 5 5 9 5z m180 0l19 0c6 0 10-4 10-10 0-5-4-10-10-10l-19 0c-4 0-7 2-9 5-2 3-2 7 0 10 2 3 5 5 9 5z m-185-111l157 0c4 0 7-2 9-5 2-3 2-7 0-10-2-3-5-5-9-5l-157 0c-5 0-10 5-10 10 0 5 5 10 10 10z m202-3c4 3 9 4 13 1 4-2 5-7 4-12-2-4-7-7-11-6-5 1-8 5-8 10 0 3 1 5 2 7z m-202-63l157 0c4 0 7-2 9-5 2-3 2-7 0-10-2-3-5-5-9-5l-157 0c-5 0-10 5-10 10 0 5 5 10 10 10z m202-3c4 3 9 4 13 1 4-2 5-7 4-12-2-4-7-7-11-6-5 1-8 5-8 10 0 3 1 5 2 7z m-202-63l157 0c4 0 7-2 9-5 2-3 2-7 0-10-2-3-5-5-9-5l-157 0c-4 0-7 2-9 5-2 3-2 7 0 10 2 3 5 5 9 5z m202-3c4 3 9 4 13 1 4-2 5-7 4-12-2-4-7-7-11-6-5 1-8 5-8 10 0 3 1 5 2 7z"/>
<glyph glyph-name="cancel" unicode="&#59;" d="M256 0c-141 0-256 115-256 256 0 141 115 256 256 256 141 0 256-115 256-256 0-141-115-256-256-256z m0 225l78-78c8-8 22-8 31 0 8 9 8 23 0 31l-78 78 78 78c8 8 8 22 0 31-9 9-23 9-31 0l-78-78-78 78c-8 9-22 9-31 0-9-9-9-23 0-31l78-78-78-78c-8-8-8-22 0-31 9-8 23-8 31 0z"/>
<glyph glyph-name="call" unicode="&#61;" d="M390 173c-7 8-17 12-28 12-10 0-20-4-27-12-12-13-25-25-38-38-1-2-2-3-4-3-2 0-4 0-6 1-8 5-17 8-25 13-36 24-68 53-95 87-14 16-25 34-34 54-2 3-1 8 2 10 13 12 25 25 38 37 17 18 17 38 0 56-10 10-20 20-30 30-10 10-21 20-31 31-7 7-17 12-27 12-10 0-20-5-27-13-13-12-25-25-38-37-12-11-19-26-20-42-1-26 4-52 14-76 19-50 47-96 82-137 46-55 103-100 168-131 29-15 61-25 93-27 22-3 44 6 59 22 11 12 23 23 34 35 17 17 18 38 1 55-21 20-41 41-61 61z m-21 85l40 7c-13 75-74 134-150 145l-5-40c58-8 105-53 115-112z m62 171c-45 45-104 74-167 83l-5-40c109-15 195-99 214-207l40 7c-11 59-39 114-82 157z"/>
<glyph glyph-name="more" unicode="&#62;" d="M256 108c30 0 54-24 54-54 0-30-24-54-54-54-30 0-54 24-54 54 0 30 24 54 54 54z m0 202c30 0 54-24 54-54 0-30-24-54-54-54-30 0-54 24-54 54 0 30 24 54 54 54z m0 202c30 0 54-24 54-54 0-30-24-54-54-54-30 0-54 24-54 54 0 30 24 54 54 54z"/>
<glyph glyph-name="tick" unicode="&#63;" d="M253 512c-140 0-253-113-253-253 0-139 113-252 253-252 139 0 252 113 252 252 0 140-113 253-252 253z m-81-227l64-71 118 133c10 9 25 8 33-1 9-10 8-25-1-33l-118-134-32-32-35 35-64 72c-9 10-8 24 1 33 10 9 25 8 34-2z"/>
<glyph glyph-name="warning" unicode="&#64;" d="M256 161c-15 0-27-12-27-26 0-15 12-26 27-26 14 0 25 12 25 26 0 14-11 26-25 26z m243-93c16 28 17 63 0 91l-164 285c-17 28-47 46-79 46-33 0-63-18-79-46l-165-285c-16-28-16-63 0-91 17-28 47-46 79-46l329 0c33 0 63 18 79 46z m-36 21c-9-16-25-26-43-25l-329 0c-18-1-34 9-43 24-9 16-9 35 0 50l165 286c9 15 25 25 43 25 18 0 34-10 43-25l165-286c8-15 8-34-1-49z m-214 257c-12-4-21-16-20-29 1-8 1-17 2-25 1-32 3-63 5-94 0-11 9-19 20-19 10 0 19 9 19 19 0 7 0 13 1 19 1 21 2 41 4 61 0 13 1 27 2 40 0 4-1 9-2 13-6 12-18 18-31 15z"/>
<glyph glyph-name="unlock" unicode="&#91;" d="M401 323l-213 0 0 83c1 37 31 66 68 66 37 0 67-29 68-66l0-13 40 0 0 13c-1 59-49 107-108 107-59 0-108-48-108-107l0-83-37 0c-33 0-60-27-60-60l0-205c0-33 27-60 60-60l290 0c33 0 60 27 60 60l0 205c0 33-27 60-60 60z m20-265c0-11-9-20-20-20l-290 0c-11 0-20 9-20 20l0 205c0 11 9 20 20 20l290 0c11 0 20-9 20-20z m-165 167c-17 0-31-11-36-27-4-15 2-32 16-41l0-45c0-7 3-14 10-18 6-3 14-3 20 0 7 4 10 11 10 18l0 45c14 8 20 26 16 41-5 16-19 27-36 27z"/>
<glyph glyph-name="sms" unicode="&#93;" d="M473 350l-14 0 0-153c1-12-3-24-11-32-8-9-19-14-31-14l-272 0 0-7c3-24 24-42 48-42l209 0 80-47-12 47 3 0c11 0 20 5 27 13 7 8 10 19 9 29l0 170c1 9-3 19-9 26-7 7-17 11-27 10z m-96 106l-317 0c-28 0-60-24-60-48l0-192c0-22 27-38 53-41l-17-64 109 64 232 0c28 0 53 17 53 41l0 192c-3 27-26 48-53 48z m-269-162c-16 0-28 13-28 29 0 16 12 28 28 28 16 0 29-12 29-28 0-16-13-29-29-29z m107 0c-16 0-28 13-28 29 0 16 12 28 28 28 16 0 29-12 29-28 0-16-13-29-29-29z m107 0c-16 0-29 13-29 29 0 16 13 28 29 28 16 0 29-12 29-28 0-16-13-29-29-29z"/>
<glyph glyph-name="lock" unicode="&#94;" d="M401 323l-213 0 0 83c1 37 31 66 68 66 37 0 67-29 68-66l0-90 40 0 0 90c-1 59-49 107-108 107-59 0-108-48-108-107l0-83-37 0c-33 0-60-27-60-60l0-205c0-33 27-60 60-60l290 0c33 0 60 27 60 60l0 205c0 33-27 60-60 60z m20-265c0-11-9-20-20-20l-290 0c-11 0-20 9-20 20l0 205c0 11 9 20 20 20l290 0c11 0 20-9 20-20z m-165 167c-17 0-31-11-36-27-4-15 2-32 16-41l0-45c0-7 3-14 10-18 6-3 14-3 20 0 7 4 10 11 10 18l0 45c14 8 20 26 16 41-5 16-19 27-36 27z"/>
<glyph glyph-name="error" unicode="&#95;" d="M256 512c70 0 137-29 186-80 0 0 0-1 1-1 0 0 0-1 1-2 82-89 90-223 20-321-71-99-201-134-311-86-111 49-172 169-147 287 24 119 129 203 250 203z m215-256c0 47-16 93-44 130l-301-301c65-49 152-58 225-21 74 36 120 110 120 192z m-375-142l302 302c-84 76-214 72-294-8-80-80-84-210-8-294z"/>
<glyph glyph-name="close" unicode="&#102;" d="M256 0c-104 0-197 62-236 158-40 96-18 206 55 279 64 66 159 92 249 69 89-24 158-93 182-183 23-89-3-184-69-248-48-48-113-75-181-75z m0 220l91-91c10-10 26-10 36 0 10 10 10 26 0 36l-91 91 91 91c10 10 10 26 0 36-10 10-26 10-36 0l-91-91-91 91c-10 10-26 10-36 0-10-10-10-26 0-36l91-91-91-91c-10-10-10-26 0-36 10-10 26-10 36 0l91 91z"/>
<glyph glyph-name="warning-1" unicode="&#125;" d="M129 383c-71-71-71-186 0-257 71-71 186-71 257 0 71 71 71 186 0 257-71 71-186 71-257 0z m76-175l104 104c6 6 15 6 20 0 6-6 6-15 0-20l-103-104c-6-6-15-6-21 0-5 6-5 15 0 20z m57 110c-37 0-68-31-68-68 0-37 31-68 68-68 37 0 68 31 68 68 0 37-31 68-68 68m0 27c53 0 95-42 95-95 0-53-42-95-95-95-53 0-95 42-95 95 0 53 42 95 95 95z"/>
<glyph glyph-name="mick" unicode="&#96;" d="M256 361c-20 0-37-16-37-37l0-72c0-21 17-37 37-37 20 0 37 16 37 36l0 73c0 21-17 37-37 37z m22-110c-1-11-10-20-22-20-12 0-21 9-21 21l0 72c0 12 9 22 21 22 12 0 22-10 22-22z m-30-58l16 0 0-34-16 0z m28-27l-40 0c-4 0-8-3-8-7 0-5 4-8 8-8l40 0c4 0 8 3 8 8 0 4-4 7-8 7z m38 99c-2 0-4-1-5-2-2-2-3-4-3-6l0-6c1-18-9-35-25-44-15-9-35-9-50 0-16 9-26 26-25 44l0 6c0 4-4 8-8 8-4 0-8-4-8-8l0-6c0-36 30-66 66-66 36 0 66 30 66 66l0 6c0 4-4 8-8 8z"/>
<glyph glyph-name="configuration-menu" unicode="&#92;" d="M467 512l-422 0c-25 0-45-20-45-45l0-422c0-25 20-45 45-45l422 0c25 0 45 20 45 45l0 422c0 25-20 45-45 45z m-422-30l422 0c8 0 15-7 15-15l0-75-452 0 0 75c0 8 7 15 15 15z m422-452l-422 0c-8 0-15 7-15 15l0 316 452 0 0-316c0-8-7-15-15-15z m-162 274c-7 3-16 0-19-7l-87-204c-2-5-1-10 2-15 3-4 8-6 13-5 5 0 10 4 12 9l87 203c3 7 0 16-8 19z m-133-42c-2 3-6 5-10 6-3 0-7-1-10-4l-73-58c-3-3-5-7-5-11 0-5 2-9 5-11l73-59c6-5 15-4 20 3 5 6 4 15-2 20l-59 47 59 47c6 5 7 14 2 20z m261-56l-73 58c-4 4-9 5-14 3-5-2-9-6-10-12 0-5 2-10 6-13l59-47-59-47c-4-3-6-8-6-14 1-5 5-9 10-11 5-2 10-1 14 2l73 59c3 2 5 6 5 11 0 4-2 8-5 11z m-343 230c0-9-7-17-17-17-9 0-17 8-17 17 0 10 8 17 17 17 10 0 17-7 17-17z m64 0c0-9-8-17-17-17-10 0-17 8-17 17 0 10 7 17 17 17 9 0 17-7 17-17z m62 0c0-9-8-17-17-17-10 0-17 8-17 17 0 10 7 17 17 17 9 0 17-7 17-17z m135-11l87 0c6-1 11 2 14 7 3 4 3 10 0 15-3 5-8 7-14 7l-87 0c-5 0-10-2-13-7-3-5-3-11 0-15 3-5 8-8 13-7z"/>
<glyph glyph-name="group-10475" unicode="&#57344;" d="M198 5c-2 0-4 2-6 4-1 2-2 5-2 8 2 5 7 9 13 8 15-3 31-5 47-5 132-1 240 104 242 236-1 52-19 103-51 144-7-3-14-5-21-5-11 0-22 5-30 12-9 8-13 19-13 30 0 11 4 22 13 30 8 8 19 12 30 12 11 0 22-4 30-12 15-14 17-36 6-53 36-45 56-101 56-158 0-69-28-134-77-181-49-48-116-75-185-75-17 0-35 2-52 5z m206 448c-4-4-7-10-7-16 0-6 3-11 7-15 4-4 10-7 16-7 6 0 12 3 16 7 4 4 6 9 6 15 0 6-2 12-6 16-4 4-10 6-16 6-6 0-12-2-16-6z m-247-432c-2 2-3 5-3 7 0 3 1 6 3 7 2 2 5 3 7 4 3 0 6-2 8-4 2-1 3-4 3-7 0-3-1-5-3-7-2-2-5-3-8-3-2 0-5 1-7 3z m-95 24c-8 8-13 19-13 30 0 8 3 16 7 23-36 45-56 101-56 158 0 69 28 134 77 181 49 48 116 75 185 75 18 0 35-2 52-5 3-1 5-2 7-4 1-3 2-5 1-8-1-5-6-9-12-8-16 3-32 5-48 5-132 1-240-104-241-236 0-52 18-103 51-145 6 4 13 6 20 6 12 0 23-5 31-13 8-7 12-18 12-29 0-11-4-22-12-30-8-8-19-12-31-12-11 0-22 4-30 12z m14 45c-4-4-6-9-6-15 0-6 2-12 6-16 4-4 10-6 16-6 6 0 12 2 16 6 4 4 7 10 7 16 0 6-3 11-7 15-4 4-10 7-16 7-6 0-12-3-16-7z m149-14c-5 0-10 4-10 10l0 19c-13 3-25 8-37 15l-14-13c-1-2-4-3-7-3-2 0-5 1-7 3l-43 43c-2 2-3 5-3 7 0 3 1 6 3 7l13 14c-7 12-12 24-15 37l-19 0c-3 0-5 1-7 3-2 2-3 4-3 7l0 62c0 3 1 5 3 7 2 2 4 3 7 3l19 0c3 13 8 25 15 37l-13 13c-2 2-3 5-3 7 0 3 1 6 3 7l43 44c2 2 5 3 7 3 3 0 6-1 7-3l14-13c12 6 24 12 37 15l0 19c0 6 5 10 10 10l62 0c3 0 5-1 7-3 2-2 3-4 3-7l0-19c13-3 25-9 37-15l13 13c2 2 5 3 8 3 2 0 5-1 7-3l43-44c2-1 3-4 3-7 0-2-1-5-3-7l-13-13c7-12 12-24 15-37l19 0c3 0 6-1 7-3 2-2 3-4 3-7l0-62c0-3-1-5-3-7-1-2-4-3-7-3l-19 0c-3-13-8-25-15-37l13-14c4-4 4-10 0-14l-43-43c-2-2-5-3-7-3-3 0-6 1-7 3l-14 13c-12-7-24-12-37-15l0-19c0-3-1-6-3-7-2-2-4-3-7-3z m-43 65c14-9 29-15 45-19 5-1 8-5 8-9l0-17 42 0 0 17c0 4 3 8 8 9 16 4 31 10 45 19 4 3 9 2 13-1l12-12 29 30-12 11c-3 4-3 9-1 13 9 14 15 29 19 45 1 5 5 8 10 8l17 0 0 42-17 0c-5 0-9 3-10 8-4 16-10 31-19 45-2 4-2 9 1 13l12 12-29 29-12-12c-4-3-9-3-13-1-14 9-29 15-45 19-5 1-8 5-8 9l0 18-42 0 0-18c0-4-3-8-8-9-16-4-31-10-45-19-4-2-9-2-12 1l-12 12-30-29 12-12c3-4 4-9 1-13-9-14-15-29-19-45-1-5-5-8-9-8l-17 0 0-42 17 0c4 0 8-3 9-8 4-16 10-31 19-45 3-4 2-9-1-13l-12-11 29-30 13 12c1 2 4 3 7 3 1 0 3-1 5-2z m-10 115c0 47 37 84 84 84 47 0 84-37 85-84 0-47-38-85-85-85-47 0-84 38-84 85z m20 0c0-35 29-64 64-64 35 0 64 29 64 64 0 35-29 64-64 64-35 0-64-29-64-64z m149 220c-2 2-3 5-3 8 0 2 1 5 3 7 2 2 4 3 7 3 3 0 5-1 7-3 2-2 3-5 3-7 0-3-1-6-3-8-2-2-4-3-7-3-3 0-5 1-7 3z"/>
<glyph glyph-name="information" unicode="&#57345;" d="M256 43c-118 0-213 95-213 213 0 118 95 213 213 213 118 0 213-95 213-213 0-118-95-213-213-213z m0 469c-141 0-256-115-256-256 0-141 115-256 256-256 141 0 256 115 256 256 0 141-115 256-256 256z m50-358l-22 0 0 152c0 13-10 23-23 23l-33 0c-12 0-22-10-22-23 0-12 10-22 22-22l11 0 0-130-22 0c-12 0-22-10-22-22 0-13 10-23 22-23l89 0c12 0 22 10 22 23 0 12-10 22-22 22z m-47 189c18 0 33 15 33 33 0 19-15 34-33 34-19 0-34-15-34-34 0-18 15-33 34-33z"/>
<glyph glyph-name="delete-files" unicode="&#57346;" d="M144-2c-12 0-22 6-30 17-9 11-13 25-13 39l0 261-26 0c-2 0-4 1-6 3-2 1-3 4-2 6l0 18c-1 2 0 4 1 5 0 1 0 1 1 2 0 2 2 3 4 4l76 34-1 50c0 8 2 15 6 22 4 6 10 12 17 15l79 35c7 3 15 4 22 2 8-1 15-4 20-10l36-34 76 34c3 1 5 1 7 0 2-1 4-2 5-5l7-16c1-2 1-4 0-6 0-3-2-4-4-5l-24-11-242-108 285 0c2 0 4 0 6-2 2-2 2-4 2-6l0-18c0-2 0-5-2-6-2-2-4-3-6-3l-26 0 0-262c0-14-4-28-13-39-7-10-18-16-30-16z m-8 56c0-3 0-7 1-11 1-2 3-5 4-7 2-2 3-3 3-3l225 0c0 0 1 1 2 3 2 2 3 5 4 7 2 4 2 8 2 11l0 261-241 0z m128 423l-79-35c-1-1-2-3-3-5l2-34 110 49-25 24c-1 1-3 1-4 1 0 0-1 0-1 0z m52-392c-2 0-5 1-6 3-2 1-3 4-3 6l0 162c0 2 1 4 3 6 1 2 4 3 6 3l18 0c3 0 5-1 7-3 1-2 2-4 2-6l0-162c0-2-1-5-2-6-2-2-4-3-7-3z m-69 0c-2 0-4 1-6 3-2 1-3 4-3 6l0 162c0 2 1 4 3 6 2 2 4 3 6 3l18 0c3 0 5-1 7-3 2-2 2-4 2-6l0-162c0-2 0-5-2-6-2-2-4-3-7-3z m-68 0c-3 0-5 1-7 3-1 1-2 4-2 6l0 162c0 2 1 4 2 6 2 2 4 3 7 3l18 0c2 0 4-1 6-3 2-2 3-4 3-6l0-162c0-2-1-5-3-6-2-2-4-3-6-3z"/>
<glyph glyph-name="alarm-icon-2" unicode="&#57348;" d="M150 473l-33 39-117-99 33-39z m362-60l-117 99-33-39 117-99z m-256 44c-126-1-228-104-227-230 1-126 103-227 229-227 126 0 228 103 228 229 0 61-24 119-67 162-44 43-102 67-163 66z m0-406c-98 1-177 81-176 179 0 98 80 177 178 176 98 0 177-79 177-177 0-99-80-179-179-178z m13 306l-38 0 0-154 121-73 19 32-102 60z"/>
<glyph glyph-name="clock" unicode="&#57351;" d="M0 252c0 144 116 260 260 260 143 0 259-116 259-260 0-143-116-259-259-259-144 0-260 116-260 259z m52 0c0-114 93-207 207-207 115 0 208 93 208 207 0 115-93 208-208 208-114 0-207-93-207-208z m171-40l0 188 56 0 0-132 79 0 0-56z"/>
<glyph glyph-name="scan" unicode="&#57352;" d="M491 326c-12 0-22 10-22 22l0 101c0 11-9 20-20 20l-101 0c-12 0-21 10-21 22 0 11 9 21 21 21l101 0c35 0 63-28 63-63l0-101c0-12-10-22-21-22z m-470 0c-11 0-21 10-21 22l0 101c0 35 28 63 63 63l101 0c12 0 21-10 21-21 0-12-9-22-21-22l-101 0c-11 0-20-9-20-20l0-101c0-12-10-22-22-22z m428-326l-101 0c-12 0-21 10-21 21 0 12 9 22 21 22l101 0c11 0 20 9 20 20l0 101c0 12 10 22 22 22 11 0 21-10 21-22l0-101c0-35-28-63-63-63z m-285 0l-101 0c-35 0-63 28-63 63l0 101c0 12 10 22 21 22 12 0 22-10 22-22l0-101c0-5 2-10 6-14 3-4 9-6 14-6l101 0c12 0 22-10 22-22 0-11-10-21-22-21z m180 117l-184 0c-20 0-37 16-37 36l0 200c0 20 17 36 37 35l184 0c20 1 37-15 37-35l0-200c0-20-17-36-37-36z m-156 47l129 0c15 0 15 0 15 16l0 141c0 17 0 17-15 17l-129 0c-17 0-16 0-16-17l0-141c0-16 0-16 16-16z"/>
<glyph glyph-name="calender" unicode="&#57353;" d="M60-3c-33 0-60 27-60 60l0 354c0 34 27 61 60 61l25 0 0 40 40 0 0-40 265 0 0 40 41 0 0-40 24 0c33 0 60-27 60-61l0-354c0-33-27-60-60-60z m-20 60c0-11 9-20 20-20l395 0c11 0 20 9 20 20l0 266-435 0z m0 354l0-48 435 0 0 48c0 11-9 20-20 20l-24 0 0-40-41 0 0 40-265 0 0-40-40 0 0 40-25 0c-11 0-20-9-20-20z m127-303z m120-31l0 43 44 0 0-43z m-202 0l0 43 44 0 0-43z m103 0l0 43 44 0 0-43z m-21 124z m225-43l0 44 43 0 0-44z m-105 0l0 44 44 0 0-44z m-202 0l0 44 44 0 0-44z m103 0l0 44 44 0 0-44z m-21 128z m225-44l0 44 43 0 0-44z m-105 0l0 44 44 0 0-44z m-202 0l0 44 44 0 0-44z m103 0l0 44 44 0 0-44z"/>
<glyph glyph-name="pause" unicode="&#57354;" d="M329 68l0 376c0 37 31 68 69 68 37 0 68-31 68-68l0-376c0-37-31-68-68-68-38 0-69 31-69 68z m-297 0l0 376c0 37 31 68 68 68 38 0 69-31 69-68l0-376c0-37-31-68-69-68-37 0-68 31-68 68z"/>
<glyph glyph-name="conference" unicode="&#57355;" d="M196 51l0 0c-3 1-5 3-6 5-2 3-2 5-1 8 3 6 9 9 15 7 36-11 74-11 110 0 0 0 0 0 0 0 6 2 12-1 15-6 1-3 0-6-1-9-2-3-4-4-7-5-40-13-84-13-125 0z m-147 180c0 56 28 109 74 142 4 3 10 3 14-1 2-2 3-5 3-8 0-3-1-5-3-7-41-29-65-76-65-126 0-6-6-11-12-11-6 0-11 5-11 11z m396 0c-1 54-28 103-74 132-2 1-4 4-4 7-1 2 0 5 1 8 4 5 11 6 16 2 52-32 83-88 84-149-1-6-6-11-12-11-6 0-11 5-11 11z m-81-214c-3-1-6 0-9 2-2 2-3 5-4 8l0 9c0 1 0 1 0 1 0 17 7 33 19 45 12 12 29 18 46 18l32 0c17 0 33-7 45-19 12-12 19-28 19-45l0-9c0-3-2-6-4-8-3-2-6-3-9-2z m-351 0c-3-1-6 0-9 2-2 2-4 5-4 8l0 9c0 1 0 1 0 1 0 17 7 33 19 45 12 12 28 18 45 18l33 0c17 0 33-7 45-19 12-12 19-28 19-45l0-9c-1-3-2-6-4-8-3-2-6-3-9-2z m371 140c0 26 21 47 47 47 26 0 48-21 48-47 0-26-22-47-48-47-26 0-47 21-47 47z m-351 0c0 26 21 47 47 47 26 0 47-21 47-47 0-26-21-47-47-47-26 0-48 21-47 47z m199 24c-30 33-38 70-17 87l11 4c2 1 4 0 6-2l14-21c1-2 2-5 1-7l-3-7c-5-4-14-13 8-37 22-24 32-17 38-13l7 2c2 0 5 0 7-2l20-16c2-2 2-4 1-6l-6-10c-6-5-14-8-22-8-26 3-49 16-65 36z m-48 123c-6 0-12 3-12 10l0 10c0 17 7 33 19 45 12 12 28 18 45 18l33 0c17 0 33-7 45-19 12-12 18-28 18-45l0-9c0-7-6-10-12-10z m20 140c0 26 21 48 47 47 27 0 48-21 48-47 0-26-21-47-48-47-26 0-47 21-47 47z"/>
<glyph glyph-name="import" unicode="&#57356;" d="M34 472l112 0 0-68-79 0 0-302 281 0 0 133 67 0 0-167c0-9-3-17-10-24-6-6-14-10-23-10l-348 0c-19 0-34 15-34 34l0 370c0 19 15 34 34 34z m303-187l-45 0 0-44c0-6-3-11-8-13-5-3-11-2-15 1l-118 89c-4 3-6 7-6 12 0 4 2 9 6 11l118 89c4 3 10 4 15 1 5-2 8-7 8-13l0-44 57 0c50 0 96 28 119 73l3 7c3 6 10 10 17 8 6-2 11-8 11-14 0-90-73-163-162-163z"/>
<glyph glyph-name="service-agreement" unicode="&#57357;" d="M26 85l139 0-17-34-29 0c-14 0-25-11-25-25 0-15 11-26 25-26l239 0c15 0 26 11 26 26 0 14-11 25-26 25l-28 0-18 34 140 0c15 1 26 13 26 27l0 305 8 8 0 0 18 18c11 10 11 27 0 37l-24 24c-10 11-27 11-37 0l-18-18 0 0-8-8-391 0c-15-1-26-13-26-27l0-339c0-14 11-26 26-27z m341-59c0-5-4-9-9-9l-239 0c-4 0-8 4-8 9 0 4 4 8 8 8l239 0c5 0 9-4 9-8z m-57 25l-143 0 17 34 109 0z m39 328l30-30-46-16z m33-9l73 73 13-12-74-74z m73 122c2 2 4 3 7 3 2 0 4-1 6-3l24-24c4-4 4-9 0-13l-12-12-37 37z m-24-24l12-13-73-73-13 12z m-405-7l374 0-61-61c-1-1-1-2-2-3l0 0-20-58c-2-6-1-11 2-16 3-5 8-7 14-7 2 0 4 0 6 1l58 20 0 0c1 1 2 1 3 2l61 61 0-246-376 0c-4 0-8-4-8-9 0-5 4-8 8-8l376 0 0-25c0-5-4-9-9-10l-426 0c-5 1-9 5-9 10l0 25 34 0c5 0 9 3 9 8 0 5-4 9-9 9l-34 0 0 297c0 5 4 9 9 10z m34-137l205 0c14 0 25 12 25 26l0 68c0 14-11 26-25 26l-205 0c-14 0-26-12-26-26l0-68c0-14 12-26 26-26z m213 94l0-25-26 0c-4 0-8 3-8 8l0 26 26 0c4 0 8-4 8-9z m-222 0c0 5 4 9 9 9l162 0 0-26c0-14 11-26 25-26l26 0 0-25c0-5-4-9-8-9l-205 0c-5 0-9 4-9 9z m120-111l-111 0c-10 0-17-7-17-17l0-102c0-10 7-17 17-17l111 0c9 0 17 7 17 17l0 102c0 10-8 17-17 17z m0-17l0-68-111 0 0 68z m-111-102l0 17 111 0 0-17z m45 53c3-3 9-3 12 0l9 9c3 3 3 9 0 12l-9 9c-3 3-9 3-12-1-3-3-3-8 0-11l2-3-2-2c-3-4-3-9 0-13z m100 49c0-5 4-8 8-8l222 0c5 0 9 3 9 8 0 5-4 9-9 9l-222 0c-4 0-8-4-8-9z m230-25l-34 0c-5 0-8-4-8-9 0-5 3-9 8-9l34 0c5 0 9 4 9 9 0 5-4 9-9 9z m-222-18l154 0c5 0 8 4 8 9 0 5-3 9-8 9l-154 0c-4 0-8-4-8-9 0-5 4-9 8-9z m222-17l-162 0c-5 0-8-3-8-8 0-5 3-9 8-9l162 0c5 0 9 4 9 9 0 5-4 8-9 8z m-222-17l26 0c5 0 8 4 8 9 0 5-3 8-8 8l-26 0c-4 0-8-3-8-8 0-5 4-9 8-9z m111-17l-111 0c-4 0-8-4-8-8 0-5 4-9 8-9l111 0c5 0 9 4 9 9 0 4-4 8-9 8z"/>
<glyph glyph-name="installation-agreement" unicode="&#57358;" d="M202 195l-152 0 0-94 174 31c10 2 16 10 16 20l0 25z m299 110l-14-30-93-31-297 139 25 54c10 20 33 29 53 19z m-45-41l-32-68-43 20 13 28 0 0z m-359 119l297-139-17-36c-5-10-17-14-27-9l-242 113c-20 9-29 33-19 53z m163-142l0-36c0-17-13-30-30-30-16 0-29 13-29 30l0 63z m-210-166c0-11-9-20-20-20l-20 0 0 180 20 0c11 0 20-9 20-20z m204 267c5-2 11 0 14 5 2 5 0 11-5 13-5 3-11 1-13-4-3-5-1-11 4-14z m256-34c-1 2-2 4-5 6l-325 151c-12 6-26 7-39 2-12-4-22-14-28-26l-33-72c-6-12-7-26-2-38 4-13 14-23 26-28l87-41 0-57-131 0 0 10c0 16-14 30-30 30l-20 0c-6 0-10-5-10-10l0-180c0-5 4-10 10-10l20 0c16 0 30 14 30 30l0 18 166 29c14 3 24 15 24 30l0 18c13 7 20 21 20 35l0 20 76-36c15-6 32 0 40 14l34-16c5-2 11 0 13 5l30 64 27 9c3 1 5 3 6 5l14 30c1 3 1 5 0 8z m-470-233c0-5-5-10-10-10l-10 0 0 160 10 0c5 0 10-5 10-10z m190 77c0-5-3-9-8-10l-162-29 0 72 136 0c7-12 20-20 34-20z m20 53c0-11-9-20-20-20-11 0-20 9-20 20l0 48 40-19z m105 3l-243 113c-7 3-13 9-15 17-3 7-3 15 1 22l4 9 279-129-13-28c-2-5-8-7-13-4z m64 2l-25 11 7 15 36 12z m61 73l-85-28-285 133 21 45c4 7 10 13 17 15 8 3 16 3 23-1l317-147z m-321 115c-2-5 0-11 5-13l54-26c5-2 11 0 13 5 3 5 1 11-4 13l-55 26c-2 1-5 1-7 0-3-1-5-3-6-5z"/>
<glyph glyph-name="user" unicode="&#57359;" d="M471 93c8 7 14 16 20 24-59 65-132 103-209 111 72 12 123 79 117 152-7 73-68 130-142 130-74 0-135-57-142-130-6-73 45-140 117-152-78-7-150-45-209-111 6-8 13-16 20-24 55-60 133-94 214-94 81 0 159 34 214 94z"/>
<glyph glyph-name="next" unicode="&#57360;" d="M43 427l426 0c24 0 43-19 43-43l0-256c0-24-19-43-43-43l-426 0c-24 0-43 19-43 43l0 256c0 24 19 43 43 43z m178-86l-16-16 70-69-70-69 16-16 86 85z"/>
<glyph glyph-name="previous" unicode="&#57361;" d="M469 427l-426 0c-24 0-43-19-43-43l0-256c0-24 19-43 43-43l426 0c24 0 43 19 43 43l0 256c0 24-19 43-43 43z m-178-86l16-16-70-69 70-69-16-16-86 85z"/>
<glyph glyph-name="next-1" unicode="&#57362;" d="M180 436l152 0c99 0 180-81 180-180 0-99-81-180-180-180l-152 0c-99 0-180 81-180 180 0 99 81 180 180 180z m-8-76l-20-20 85-85-85-85 20-19 106 104z m122-21l-16-16 69-68-69-67 16-16 84 83z"/>
<glyph glyph-name="previous-1" unicode="&#57363;" d="M332 436l-152 0c-99 0-180-81-180-180 0-99 81-180 180-180l152 0c99 0 180 81 180 180 0 99-81 180-180 180z m8-76l20-20-85-85 85-85-20-19-106 104z m-122-21l16-16-69-68 69-67-16-16-84 83z"/>
<glyph glyph-name="next2" unicode="&#57364;" d="M45 491l-45-45 193-191-193-191 45-45 238 236z m276-49l-36-35 153-152-153-152 36-36 189 188z"/>
<glyph glyph-name="previous2" unicode="&#57365;" d="M465 491l45-45-193-191 193-191-45-45-238 236z m-276-49l36-35-153-152 153-152-36-36-189 188z"/>
<glyph glyph-name="lead" unicode="&#57366;" d="M302 411c-25 25-66 25-91 0l-110-110c-25-25-25-66 0-91l110-110c25-26 66-26 91 0l110 110c26 25 26 66 0 91l-110 110m28 28l110-110c40-41 40-106 0-147l-110-110c-41-40-106-40-147 0l-110 110c-40 41-40 106 0 147l110 110c41 40 106 40 147 0z"/>
<glyph glyph-name="group-10485" unicode="&#57347;" d="M256 501c-33 0-65-7-95-19-29-13-56-30-78-53-23-22-40-49-53-78-12-30-19-62-19-95 0-33 7-65 19-95 13-29 30-56 53-78 22-23 49-40 78-53 30-12 62-19 95-19 33 0 65 7 95 19 29 13 56 30 78 53 23 22 40 49 53 78 12 30 19 62 19 95 0 33-7 65-19 95-13 29-30 56-53 78-22 23-49 40-78 53-30 12-62 19-95 19m0 11c141 0 256-115 256-256 0-141-115-256-256-256-141 0-256 115-256 256 0 141 115 256 256 256z m0-111c18 0 33-15 33-34 0-18-15-33-33-33-18 0-33 15-33 33 0 19 15 34 33 34z m0-112c18 0 33-15 33-33 0-18-15-33-33-33-18 0-33 15-33 33 0 18 15 33 33 33z m0-111c18 0 33-15 33-33 0-19-15-34-33-34-18 0-33 15-33 34 0 18 15 33 33 33z"/>
<glyph glyph-name="plsy" unicode="&#57349;" d="M436 256l-366-256 0 512z"/>
<glyph glyph-name="calender" unicode="&#123;" d="M60-3c-33 0-60 27-60 60l0 354c0 34 27 61 60 61l25 0 0 40 40 0 0-40 265 0 0 40 41 0 0-40 24 0c33 0 60-27 60-61l0-354c0-33-27-60-60-60z m-20 60c0-11 9-20 20-20l395 0c11 0 20 9 20 20l0 266-435 0z m0 354l0-48 435 0 0 48c0 11-9 20-20 20l-24 0 0-40-41 0 0 40-265 0 0-40-40 0 0 40-25 0c-11 0-20-9-20-20z m127-303z m120-31l0 43 44 0 0-43z m-202 0l0 43 44 0 0-43z m103 0l0 43 44 0 0-43z m-21 124z m225-43l0 44 43 0 0-44z m-105 0l0 44 44 0 0-44z m-202 0l0 44 44 0 0-44z m103 0l0 44 44 0 0-44z m-21 128z m225-44l0 44 43 0 0-44z m-105 0l0 44 44 0 0-44z m-202 0l0 44 44 0 0-44z m103 0l0 44 44 0 0-44z"/>
<glyph glyph-name="manual-add" unicode="&#120;" d="M104 0c-44 0-80 36-80 80l0 352c0 44 36 80 80 80l246 0c44 0 80-36 80-80l0-123c0-11-9-20-20-20-11 0-20 9-20 20l0 123c0 22-18 40-40 40l-246 0c-22 0-40-18-40-40l0-352c0-22 18-40 40-40l67 0c11 0 20-9 20-20 0-11-9-20-20-20z m158 28c-2 2-3 5-2 7l9 41c0 2 2 4 3 5l0 0 171 171c3 3 7 3 9 0l35-34c2-2 2-6 0-9l-22-21-43 43-16-16 43-44-106-106-44 43-16-16 43-43-10-11-1 0c-1-2-3-3-5-4l-40-9c-1 0-2 0-2 0-2 0-5 1-6 3z m88 264c0 11-9 20-20 20l-206 0c-11 0-20-9-20-20 0-11 9-20 20-20l206 0c11 0 20 9 20 20z m-226-60c-11 0-20-9-20-20 0-11 9-20 20-20l125 0c11 0 20 9 20 20 0 11-9 20-20 20z m206 160l-206 0c-11 0-20-9-20-20 0-11 9-20 20-20l206 0c11 0 20 9 20 20 0 11-9 20-20 20z"/>
<glyph glyph-name="billing" unicode="&#41;" d="M270 271c0 8 7 15 15 15l121 0c6 1 11-2 14-7 3-5 3-11 0-16-3-5-8-7-14-7l-121 0c-8 0-15 7-15 15z m76-45l60 0c6 1 11-2 14-7 3-5 3-11 0-16-3-5-8-7-14-7l-60 0c-8 1-14 7-14 15 0 8 6 14 14 15z m0-60l60 0c8-1 14-7 14-15 0-8-6-14-14-15l-60 0c-8 1-14 7-14 15 0 8 6 14 14 15z m15 195l-30 0 0-30c1-5-2-11-7-14-5-3-11-3-16 0-5 3-8 9-7 14l0 30-30 0c-7 1-13 7-13 15 0 8 6 14 13 15l30 0 0 30c1 7 7 13 15 13 8 0 14-6 15-13l0-30 30 0c7-1 13-7 13-15 0-8-6-14-13-15z m-210-92l0 32-106 0c-8 0-15 7-15 15l0 121c0 41 34 75 76 75l301 0c41 0 75-34 75-75l0-422c0-6-4-11-10-13-5-3-12-1-16 3l-19 20-20-20c-6-6-16-6-22 0l-19 19-19-19c-6-6-15-6-21 0l-20 19-20-19c-6-6-15-6-21 0l-25 25c-45-36-108-40-157-9-48 31-72 89-59 145 13 56 60 97 117 103z m-91 168l0-106 91 0 0 106c0 25-20 45-45 45-25 0-46-20-46-45z m226-400l19 19c6 6 16 6 22 0l19-19 20 19c6 6 15 6 21 0l19-19 21 20c2 3 6 5 10 5 4 0 8-2 11-5l4-4 0 384c0 25-20 45-45 45l-241 0c10-13 15-29 15-45l0-168c49-6 90-37 109-82 18-46 11-97-19-136z m-121-7c58 0 105 47 105 105 0 58-47 105-105 105-58 0-105-47-105-105 0-58 47-105 105-105z m55 46c0-1 0-2 0-2-1-1-1-1-2-1-2-1-3-1-5-1-2 0-4 0-8 0-3 0-5 0-7 0-1 0-2 0-4 1-1 0-1 0-2 1 0 1-1 1-1 2l-12 30c-1 3-3 6-4 9-1 2-3 4-5 6-1 2-3 3-5 4-3 1-5 2-8 2l-8 0 0-51c0-1-1-1-1-2-1-1-1-1-2-1-2-1-3-1-4-1-3 0-5 0-7 0-2 0-4 0-7 0-1 0-2 0-4 1-1 0-1 0-2 1 0 1 0 1 0 2l0 121c-1 2 0 5 2 6 1 2 3 2 6 2l34 0c3 0 6 0 9 0 2 0 4 0 6 0 5-1 10-2 14-4 4-2 8-4 11-8 3-3 5-6 7-10 2-5 2-9 2-14 0-4 0-8-1-12-1-4-3-7-5-10-3-3-5-6-8-8-4-2-8-4-11-5 2-1 3-2 5-3 2-2 4-3 5-5 2-2 3-5 4-7 2-3 3-6 4-8l12-27c1-2 1-4 2-5 0-1 0-2 0-3z m-35 90c0 4-1 8-3 11-2 3-5 6-9 7-2 0-4 0-5 0-3 1-5 1-7 1l-12 0 0-38 13 0c4 0 7 0 10 1 3 1 5 2 8 4 1 2 3 4 4 6 1 3 1 5 1 8z"/>
<glyph glyph-name="right-arrow" unicode="&#57350;" d="M317 445l-40-40 121-121-398 0 0-56 398 0-121-120 40-40 188 188z"/>
<glyph glyph-name="process-payment" unicode="&#57353;" d="M133 262l-10 0c-11 0-20-8-20-19 0-11 9-20 20-20l10 0c11 0 20 9 20 20 0 11-9 19-20 19z m194 79l-125 0c-11 0-20-9-20-19 0-11 9-20 20-20l125 0c11 0 20 9 20 20 0 10-9 19-20 19z m-31-295l-193 0c-21 0-39 18-39 40l0 347c0 22 18 40 39 40l243 0c22 0 39-18 39-40l1-175c0-11 9-20 20-20 11 0 20 9 20 20l-1 175c0 44-36 79-79 79l-243 0c-43 0-79-35-79-79l0-347c0-44 36-79 79-79l193 0c10 0 19 9 19 20 0 11-9 19-19 19z m-163 137l-10 0c-11 0-20-8-20-19 0-11 9-20 20-20l10 0c11 0 20 9 20 20 0 11-9 19-20 19z m194 237l-125 0c-11 0-20-9-20-19 0-11 9-20 20-20l125 0c11 0 20 9 20 20 0 10-9 19-20 19z m-39-276c11 0 20 9 20 20 0 11-9 19-20 19l-86 0c-11 0-20-8-20-19 0-11 9-20 20-20z m-155 197l-10 0c-11 0-20-9-20-19 0-11 9-20 20-20l10 0c11 0 20 9 20 20 0 10-9 19-20 19z m214-98c0 11-9 19-20 19l-125 0c-11 0-20-8-20-19 0-11 9-20 20-20l125 0c6 0 11 2 14 6 4 3 6 8 6 14z m-214 177l-10 0c-11 0-20-9-20-19 0-11 9-20 20-20l10 0c11 0 20 9 20 20 0 10-9 19-20 19z m346-408c0-1 0-2-1-2 0-1-1-2-2-2-1 0-2-1-4-1-2 0-5 0-7 0-2 0-5 0-7 0-1 0-3 1-4 1-1 1-2 1-2 2-1 1-1 2-2 3l-18 47c-2 6-7 15-7 15-2 4-5 8-8 11-3 4-7 6-11 8-5 2-11 3-16 3l-18 0 0-85c0-1 0-2 0-2-1-1-2-2-2-2-2 0-3-1-4-1-3 0-5 0-7 0-2 0-4 0-6 0-2 0-3 1-4 1-1 0-2 1-2 2-1 0-1 1-1 2l0 184c0 4 1 7 3 9 2 1 4 2 7 2l42 0c5 0 9 0 13 0 3 0 6-1 9-1 7-1 14-3 20-6 6-3 11-7 15-11 4-5 7-10 9-15 2-6 3-13 3-19 0-6-1-12-3-18-1-5-4-10-7-14-4-4-8-8-13-11-5-3-10-5-15-7 3-2 6-4 8-6 3-2 6-5 8-8 2-3 5-7 7-10 2-4 4-9 6-14l18-44c1-4 2-6 2-8 1-1 1-2 1-3z m-40 140c0 7-2 14-5 20-5 6-11 10-18 11-3 1-6 2-9 2-3 0-7 0-12 0l-23 0 0-67 26 0c6 0 12 1 18 3 5 1 9 4 13 7 3 3 6 6 8 10 1 5 2 9 2 14z"/>
<glyph glyph-name="upward" unicode="&#57369;" d="M256 456l256-390-512 0z"/>
<glyph glyph-name="cheque" unicode="&#57370;" d="M503 401l-494 0c-5 0-9-4-9-9l0-265c0-5 4-9 9-9l494 0c5 0 9 4 9 9l0 265c0 5-4 9-9 9z m-9-265l-476 0 0 247 476 0z m-39 70l-40-21 0 13c0 3-2 6-4 7-3 2-6 2-9 1l-40-20 0 12c0 3-2 6-4 7-3 2-6 2-9 1l-53-27 8-16 40 20 0-12c0-3 2-6 4-7 3-2 6-2 9-1l40 20 0-12c0-3 2-6 4-7 3-2 6-2 9-1l53 27z m-391 104l115 0 0-9-115 0z m38 48l77 0 0-19-77 0z m29-135l116 0 0-9-116 0z m0-28l116 0 0-29-116 0z m48 57l68 0 0-9-68 0z m280 105l-229 0c-5 0-9-4-9-9l0-36c0-4 4-8 9-8l229 0c5 0 9 4 9 8l0 36c0 5-4 9-9 9z m-9-36l-212 0 0 18 212 0z m-354-117c-2 6-7 12-13 15l-17 9c-3 1-5 5-4 8 1 3 4 6 7 6l3 0c4 0 7-4 7-8l0-1 18 0 0 1c0 11-7 21-18 24l0 10-17 0 0-10c-10-3-17-12-18-22-1-10 5-20 14-24l17-9c3-1 5-5 4-8-1-4-4-6-7-6l-3 0c-4 0-7 3-7 7l0 2-18 0 0-2c0-11 7-20 18-24l0-10 17 0 0 10c14 5 21 19 17 32z m-23 154l20 0 0-19-20 0z m231-106l20 0 0-9-20 0z m49 0l9 0 0-9-9 0z m28 0l10 0 0-9-10 0z m39 0l19 0 0-9-19 0z m29 0l19 0 0-9-19 0z"/>
<glyph glyph-name="debit-order-1" unicode="&#57371;" d="M508 328l-57 149c-5 14-15 24-29 30-13 6-28 7-41 1l-2 0-285-119c-28-11-41-42-31-69l8-21-18 0c-29 0-53-24-53-54l0-192c0-29 24-53 53-53l363 0c29 0 53 24 53 53l0 192c0 3 0 6-1 9l10 4c27 11 41 42 30 70z m-455-46l363 0c19 0 35-15 36-35l-435 0c1 20 17 35 36 35z m86 51l57 29 12-30-57-28z m313-280c0-20-16-36-36-36l-363 0c-20 0-36 16-36 36l0 109 435 0z m0 126l-435 0 0 51 435 0z m20 95l-9-4c-9 18-28 29-47 29l-237 0 43 21c4 2 6 7 4 11l-18 45c-1 3-2 4-4 5-2 1-5 1-7 0 0 0 0 0 0 0l-73-36c-4-2-5-7-4-11l14-35-44 0-11 27c-7 19 2 40 21 47l286 119c9 4 19 4 29 0 9-4 16-11 20-20 0-1 0-1 0-1l58-149c7-19-3-40-21-48z m-164-234c16-9 35-9 51 0 21-12 48-7 64 11 15 19 15 46 0 65-16 19-43 24-64 11-24 14-55 6-69-18-14-24-6-55 18-69z m65 75c14 5 29 1 38-11 9-12 9-28 0-40-9-12-24-17-38-12 15 19 15 45 0 63z m-14-9c11-13 11-32 0-44-11 12-11 31 0 44z m-25 11c3 0 7 0 11-2-15-18-15-44 0-63-13-4-27-1-36 9-9 10-11 24-6 36 5 12 17 20 31 20z m35 204l-7 15 80 36 7-16z m-62 34l115 53 7-15-115-54z"/>
<glyph glyph-name="eft" unicode="&#57372;" d="M66 245l208 0c5 0 10 4 10 10l0 61c0 5-5 10-10 10l-208 0c-5 0-10-5-10-10l0-61c0-6 5-10 10-10z m10 61l188 0 0-41-188 0z m-20-251c0-6 5-10 10-10l208 0c5 0 10 4 10 10l0 155c0 6-5 10-10 10l-208 0c-5 0-10-4-10-10z m158 145l50 0 0-32-50 0z m0-52l50 0 0-31-50 0z m0-51l50 0 0-32-50 0z m-69 103l49 0 0-32-49 0z m0-52l49 0 0-31-49 0z m0-51l49 0 0-32-49 0z m-69 103l50 0 0-32-50 0z m0-52l50 0 0-31-50 0z m0-51l50 0 0-32-50 0z m316 54c8 0 15 3 21 8 12-12 32-11 43 1 12 12 12 31 0 43-11 12-31 13-43 1-10 10-25 11-37 4-12-7-18-21-14-35 4-13 16-22 30-22z m42 41c6 0 11-5 11-11 0-6-5-10-11-10-6 0-11 5-11 11 0 6 5 10 11 10z m-42 0c6 0 11-5 11-11 0-6-5-10-11-10-6 0-11 5-11 11 0 2 1 5 3 7 2 2 5 3 8 3z m-248 251l52 0c6 0 10 4 10 10 0 6-4 10-10 10l-52 0c-6 0-10-4-10-10 0-6 4-10 10-10z m0-40l52 0c6 0 10 4 10 10 0 6-4 10-10 10l-52 0c-6 0-10-4-10-10 0-6 4-10 10-10z m342-90l-157 0 0 69c0 17-14 32-32 32l-51 0 0 30 43 0c5 0 10 4 10 10l0 22c0 20-17 36-37 36l-145 0c-13 0-23-10-23-23l0-75-51 0c-18 0-32-14-32-32l0-126c0-6 5-10 10-10 6 0 10 4 10 10l0 126c0 6 5 12 12 12l51 0 0-23-21 0c-6 0-10-5-10-10 0-6 4-10 10-10l191 0c6 0 10 4 10 10 0 5-4 10-10 10l-18 0 0 23 51 0c7 0 12-6 12-12l0-350c0-7-5-12-12-12l-254 0c-7 0-12 5-12 12l0 130c0 5-4 10-10 10-5 0-10-5-10-10l0-130c0-18 14-32 32-32l254 0c18 0 32 14 32 32l0 77 157 0c13 0 24 11 24 25l0 154c0 14-11 25-24 25z m-240 159l0 4c0 9 7 16 16 16 9 0 17-7 17-16l0-12-33 0z m-20 4l0-105-112 0 0 118c0 2 1 3 3 3l113 0c-3-5-4-11-4-16z m264-342c0-3-2-5-4-5l-157 0 0 120 161 0z m0 135l-161 0 0 24 157 0c2 0 4-2 4-5z m-469-72c6 0 10 4 10 10l0 0c0 5-4 10-10 10-5 0-10-5-10-10 0-6 5-10 10-10z"/>
<glyph glyph-name="debit-order" unicode="&#57373;" d="M466 82l-420 0c-25 0-46 21-46 46l0 260c0 25 21 46 46 46l420 0c25 0 46-21 46-46l0-260c0-25-21-46-46-46z m-420 320c-8 0-14-6-14-14l0-260c0-8 6-14 14-14l420 0c8 0 14 6 14 14l0 260c0 8-6 14-14 14z m320-190c-6 0-12 4-15 9-2 6-2 12 2 17 5 6 7 13 7 20 0 7-2 14-7 20-4 4-5 11-3 16 3 5 7 9 13 10 6 1 12-2 15-6 9-12 14-26 14-40 0-14-5-28-14-40-3-3-7-6-12-6z m39-39c-6 0-12 3-14 9-3 6-2 13 3 17 14 17 22 37 22 59 0 22-8 43-22 59-6 6-6 16 1 22 6 6 16 6 22-1 20-22 31-50 31-80 0-30-11-58-31-80-3-3-7-5-12-5z m-281 85l-24 0c-20 0-36 16-36 36l0 24c0 20 16 36 36 36l24 0c20 0 36-16 36-36l0-24c0-20-16-36-36-36z m-24 64c-2 0-4-2-4-4l0-24c0-2 2-4 4-4l24 0c2 0 4 2 4 4l0 24c0 2-2 4-4 4z"/>
<glyph glyph-name="successfully" unicode="&#57374;" d="M354 343l-131-139-64 68c-4 4-10 6-16 6-5 0-11-2-15-6-8-10-8-24 0-33l79-84c4-4 9-7 15-7 6 0 11 2 15 6 0 0 1 1 1 1l147 156c9 9 9 23 0 32-4 5-9 7-15 7-6 0-12-2-16-7z m83 94c-86 86-222 100-323 32-102-68-141-198-95-311 47-113 167-177 287-153 120 24 206 129 206 251 0 68-27 133-75 181z m-181-416c-130 0-235 105-235 235 0 130 105 235 235 235 130 0 235-105 235-235 0-130-105-235-235-235z"/>
<glyph glyph-name="cash-payment" unicode="&#57375;" d="M77 338l428 0c4 0 7-3 7-7l0-205c0-4-3-8-7-8l-291 0c-3 0-5 2-7 4-1 2-1 5 0 7 2 3 4 4 7 4l283 0 0 191-413 0 0-19c0-4-3-7-7-7-2 0-4 1-5 2-2 1-2 3-2 5l0 26c0 4 3 7 7 7z m50 34l342 77c2 1 4 0 5-1 2-1 3-2 4-4l17-77c0-4-2-8-6-9-4-1-8 2-9 6l-15 69-335-75c-1 0-1 0-2 0-3 0-6 3-7 6 0 4 2 7 6 8z m41 43l206 85c3 2 7 0 9-3l17-34c2-4 1-8-3-10-4-2-8-1-10 3 0 0 0 0 0 0l-14 28-199-83c-4-1-8 0-10 4-1 4 0 8 4 10z m-5-111l68 0c3 0 5-1 7-3 1-3 1-6 0-8-2-2-4-4-7-4l-68 0c-3 0-5 2-7 4-1 2-1 5 0 8 2 2 4 3 7 3z m136 0c42 0 76-34 76-76 0-41-34-75-76-75-41 0-75 34-75 75 0 42 34 76 75 76z m0-137c34 0 62 27 62 61 0 34-28 62-62 62-34 0-61-28-61-62 0-34 27-61 61-61z m-205 113c45 0 94-11 94-35l0-205c0-23-49-34-94-34-45 0-94 11-94 34l0 205c0 24 49 35 94 35z m-77-240c1-4 27-17 77-17 50 0 76 13 77 17l0 14c-50-18-104-18-154 0z m0 34c1-4 27-17 77-17 50 0 76 13 77 17l0 14c-50-18-104-18-154 0z m0 35c1-5 27-18 77-18 50 0 76 13 77 18l0 13c-50-18-104-18-154 0z m0 34c1-5 27-17 77-17 50 0 76 12 77 17l0 13c-50-18-104-18-154 0z m0 34c1-5 27-17 77-17 50 0 76 12 77 17l0 13c-50-17-104-17-154 0z m0 34c1-4 27-17 77-17 50 0 76 13 77 17l0 14c-50-18-104-18-154 0z m77 17c50 0 76 13 77 17-1 5-27 17-77 17-50 0-75-12-77-17 2-4 27-17 77-17z m274-61l64 0 31 34 0 55-34 33-61 0c-3 0-5 2-7 4-1 2-1 5 0 8 2 2 4 3 7 3l64 0c2 0 4-1 5-2l39-37c1-2 2-4 2-6l0-61c0-2-1-4-2-5l-35-38c-1-1-3-2-5-2l-68 0c-3 0-5 1-7 3-1 3-1 5 0 8 2 2 4 3 7 3z"/>
<glyph glyph-name="box" unicode="&#57376;" d="M0 418l0-324c0-7 5-14 12-17l239-76c1-1 3-1 5-1 2 0 4 0 6 1l238 76c7 3 12 10 12 17l0 324c0 7-5 14-12 17l-239 76c-3 1-7 1-11 0l-238-76c-7-3-12-10-12-17z m36-25l200-64 0-286-200 64z m236-351l0 286 204 65 0-286z m-16 433l180-57-180-58-180 58z"/>
<glyph glyph-name="information-icon" unicode="&#57377;" d="M302 15c0-2-1-5-2-7-2-2-5-3-8-4-5-2-9-3-14-3-8-1-16-1-23-1-8 0-15 0-23 1-5 0-10 1-15 3-2 1-5 2-7 4-2 2-3 5-2 7l0 334c-1 2 0 5 2 7 2 2 5 4 7 5 5 1 10 2 15 3 8 1 15 1 23 1 7 0 15 0 23-1 5-1 10-2 14-3 3-1 6-3 8-5 1-2 2-5 2-7z m7 448c0-19-4-32-11-39-8-7-23-11-44-11-21 0-35 3-43 10-8 11-12 25-11 38-1 15 3 29 12 40 7 7 22 11 43 11 21 0 35-4 43-11 9-10 13-24 11-38z"/>
<glyph glyph-name="refresh-1" unicode="&#57367;" d="M60 306c-5 0-11 1-16 3-11 4-19 12-23 22-4 11-4 22 0 32 42 92 134 150 235 149 101 1 193-57 235-148 10-21-68-55-78-34-28 61-90 100-157 99-67 1-128-38-156-99-7-15-23-25-40-24z m196-306c-101-1-193 57-236 149-9 20 69 54 79 33 29-61 90-99 157-99 67 0 128 38 157 99 10 21 35 30 57 21 10-4 18-12 22-23 4-10 4-21-1-32-43-91-134-149-235-148z m215 305l-104 0c-16 0-31 11-38 26-6 15-3 33 9 45l104 103c11 12 29 16 45 9 15-6 25-21 25-38l0-103c0-11-4-22-12-29-8-8-18-13-29-13z m-430-284c-5 0-11 1-16 3-15 6-25 21-25 38l0 103c0 11 4 22 12 29 8 8 18 12 29 12l104 0c16 0 31-10 38-25 6-15 3-33-9-45l-104-103c-7-8-18-12-29-12z"/>
<glyph glyph-name="schedule-selling-price" unicode="&#57368;" d="M304 78l-247 0c-31 0-57 25-57 56l0 300c0 31 26 56 57 56l342 0c32 0 57-25 57-56l0-206-38 0 0 187-380 0 0-281c0-10 9-19 19-19l247 0z m-76 75c-26 0-51 9-71 25l-10-10c-4-4-9-6-14-6-2 0-5 1-7 2-7 2-12 9-12 17l0 47c0 10 9 18 19 18l48 0c7 0 14-4 17-11 3-7 2-15-4-21l-10-10c18-13 42-17 64-11 22 6 41 21 50 42 4 10 16 14 25 10 9-4 14-15 10-24-14-8-25-22-28-39-21-19-48-29-77-29z m95 131l-47 0c-8 0-15 4-18 11-3 7-1 15 4 21l11 10c-13 9-29 14-45 14-30 0-57-17-69-45-5-9-16-14-25-10-5 2-9 6-10 11-2 4-2 9 0 14 18 41 59 68 104 67 26 0 51-8 72-24l10 10c3 3 8 5 13 5 3 0 5 0 8-1 7-3 11-10 11-18l0-46c0-11-8-19-19-19z m62-264c-1 0-2 1-2 1l-34 19c-2 1-3 3-2 5l10 24c-2 3-3 5-5 8-1 3-3 5-4 8l-26 4c-2 0-4 2-4 4l1 38c0 3 2 5 4 5l26 4c2 6 5 11 9 16l-9 24c-1 2 0 4 2 6l34 19c0 1 1 1 2 1 2 0 3-1 4-2l16-20c3 1 6 1 10 1 3 0 6 0 9-1l16 21c1 1 4 2 6 1l33-19c2-1 3-3 2-6l-10-24c2-2 4-4 5-7 2-3 3-6 4-8l26-4c2 0 4-2 4-4l0-39c0-2-2-4-5-4l-25-4c-3-6-6-11-10-16l10-24c0-2-1-5-3-6l-33-19c-1-1-2-1-3-1-1 0-3 1-4 2l-15 20c-3-1-7-1-10-1-3 0-6 0-9 0l-16-20c-1-1-3-2-4-2z m-5 80c-2 0-5-2-6-4-1-2-1-5 0-7 12-17 33-24 53-18 20 6 33 24 33 44 0 3-1 5-4 6-2 1-4 1-6 0l-20-13c-2-2-3-3-3-5 0-2 0-4 2-6l7-7c-8-6-17-9-27-8-9 1-18 7-23 15-2 2-4 3-6 3z m33 62c-26 0-46-21-46-47 0-2 1-4 3-6 2-1 5-1 7 1l20 13c2 1 3 3 3 5 0 2-1 4-2 5l-7 7c0 0 0 0 0 0 7 7 17 10 26 8 10-1 19-6 24-14 1-2 4-3 6-3 3 0 5 1 6 4 1 2 1 4-1 6-9 13-23 21-39 21z"/>
<glyph glyph-name="assign-to" unicode="&#57378;" d="M468 479l-424 0c-24 0-44-20-44-45l0-275c0-25 20-45 44-45l146 0 54-73c3-3 7-5 12-5 5 0 9 2 12 5l54 73 146 0c24 0 44 20 44 45l0 275c0 25-20 45-44 45z m14-320c0-9-6-15-14-15l-153 0c-5 0-9-2-12-6l-47-63-47 63c-3 4-7 6-12 6l-153 0c-8 0-14 6-14 15l0 275c0 8 6 15 14 15l424 0c8 0 14-7 14-15z m-177 141c23 20 31 53 20 82-11 28-38 47-69 47-31 0-58-19-69-47-11-29-3-62 20-82-39-19-64-58-64-102 0-8 6-15 15-15l196 0c9 0 15 7 15 15 0 44-25 83-64 102z m-49 100c24 0 44-20 44-44 0-25-20-45-44-45-24 0-44 20-44 45 0 24 20 44 44 44z m-82-187c7 40 42 69 82 69 40 0 75-29 82-69z"/>
<glyph glyph-name="dial-pad" unicode="&#57379;" d="M393 419c25 0 46 21 46 46 0 26-21 47-46 47-26 0-47-21-47-47 0-25 21-46 47-46z m-280-47c-25 0-46-20-46-46 0-26 21-47 46-47 26 0 47 21 47 47 0 26-21 46-47 46z m0 140c-25 0-46-21-46-47 0-25 21-46 46-46 26 0 47 21 47 46 0 26-21 47-47 47z m0-279c-25 0-46-21-46-47 0-26 21-46 46-46 26 0 47 20 47 46 0 26-21 47-47 47z m140-140c-26 0-47-21-47-46 0-26 21-47 47-47 26 0 47 21 47 47 0 25-21 46-47 46z m140 279c-26 0-47-20-47-46 0-26 21-47 47-47 25 0 46 21 46 47 0 26-21 46-46 46z m-140-139c-26 0-47-21-47-47 0-26 21-46 47-46 26 0 47 20 47 46 0 26-21 47-47 47z m140 0c-26 0-47-21-47-47 0-26 21-46 47-46 25 0 46 20 46 46 0 26-21 47-46 47z m-140 139c-26 0-47-20-47-46 0-26 21-47 47-47 26 0 47 21 47 47 0 26-21 46-47 46z m0 140c-26 0-47-21-47-47 0-25 21-46 47-46 26 0 47 21 47 46 0 26-21 47-47 47z"/>
<glyph glyph-name="volume" unicode="&#57380;" d="M132 366l-15-16-96 0c-11 0-21-9-21-21l0-147c0-12 10-21 21-21l96 0 15-16 85-84c4-5 11-6 17-3 5 2 9 8 9 14l0 367c0 6-4 12-9 14-6 3-13 1-17-3z m323-6c6-16 11-32 14-49 3-17 4-34 4-51-1-35-8-69-21-102-12-27-28-53-48-76-7-7-7-19 0-26 4-4 10-6 15-6 5 0 11 3 14 7 103 117 106 290 6 404-3 4-8 6-14 6-5 1-10-2-14-6-7-7-8-18-1-26 19-22 34-48 45-75z m-99 46c-8-7-8-18-2-26 12-15 22-32 29-50 9-23 13-47 13-72 0-24-6-49-15-72-8-18-18-35-31-50-7-8-6-19 1-27 4-4 9-5 15-5 5 0 10 3 14 7 72 84 74 208 5 294-4 4-9 7-15 7-5 0-11-2-14-6z m-56-55c-7-7-8-18-2-26 5-8 10-16 14-25 5-14 7-28 7-43 0-15-3-29-9-43-4-9-8-17-14-25-6-8-6-19 1-26 4-4 10-6 15-5 6 0 11 3 15 8 41 53 42 128 2 183-3 5-8 7-14 8-6 0-11-2-15-6z"/>
<glyph glyph-name="mic" unicode="&#57381;" d="M485 381c3-8 5-15 7-23 1-8 2-16 2-24-1-16-4-32-10-47-6-13-13-25-22-36-4-3-3-9 0-12 2-2 4-3 7-3 2 0 5 2 6 4 48 53 49 133 3 188-1 2-4 3-6 3-3 0-5-1-7-3-4-3-4-9-1-13 9-10 16-22 21-34z m-46 21c-3-3-4-8-1-12 6-7 11-15 14-23 4-11 6-22 6-34 0-11-3-23-7-33-4-9-8-17-14-24-3-3-3-9 0-12 2-2 4-3 7-3 2 1 5 2 6 4 34 39 35 97 3 137-2 2-4 3-7 3-3 0-5-1-7-3z m-26-26c-3-3-3-8-1-12 3-3 5-7 7-11 2-7 3-13 3-20 0-7-1-14-4-20-2-5-4-9-7-12-3-4-2-9 1-12 2-2 4-3 7-3 3 1 5 2 7 4 19 25 19 60 1 85-2 3-4 4-7 4-2 0-5-1-7-3z m-386 5c-3-8-5-15-7-23-1-8-2-16-2-24 1-16 4-32 10-47 6-13 13-25 22-36 4-3 3-9 0-12-2-2-4-3-7-3-2 0-5 2-6 4-48 53-49 133-3 188 1 2 4 3 6 3 3 0 5-1 7-3 4-3 4-9 1-13-9-10-16-22-21-34z m46 21c3-3 4-8 1-12-6-7-11-15-14-23-4-11-6-22-6-34 0-11 3-23 7-33 4-9 8-17 14-24 3-3 3-9 0-12-2-2-4-3-7-3-2 1-5 2-6 4-34 39-35 97-3 137 2 2 4 3 7 3 3 0 5-1 7-3z m26-26c3-3 3-8 1-12-3-3-5-7-7-11-2-7-3-13-3-20 0-7 1-14 4-20 2-5 4-9 7-12 3-4 2-9-1-12-2-2-4-3-7-3-3 1-5 2-7 4-19 25-19 60-1 85 2 3 4 4 7 4 2 0 5-1 7-3z m159-206c43 0 77 34 77 77l0 6-27 0c-6 0-11 5-11 11 0 6 5 11 11 11l27 0 0 22-27 0c-6 0-11 4-11 10 0 6 5 11 11 11l27 0 0 22-27 0c-6 0-11 5-11 11 0 6 5 11 11 11l27 0 0 6c0 43-34 77-77 77-43 0-77-34-77-77l0-6 27 0c6 0 11-5 11-11 0-6-5-11-11-11l-27 0 0-22 27 0c6 0 11-5 11-11 0-6-5-10-11-10l-27 0 0-22 27 0c6 0 11-5 11-11 0-6-5-11-11-11l-27 0 0-6c0-43 34-77 77-77z m110 139c-7 0-13-6-13-13l0-51c0-54-43-97-97-97-54 0-97 43-97 97l0 51c0 7-6 13-13 13-7 0-13-6-13-13l0-51c0-63 48-116 110-122l0-39-35 0c-7 0-13-5-13-12 0-8 6-13 13-13l96 0c7 0 13 5 13 13 0 7-6 12-13 12l-35 0 0 39c62 6 110 59 110 122l0 51c0 4-2 7-4 9-2 3-6 4-9 4z"/>
<glyph glyph-name="expand" unicode="&#57382;" d="M340 11l0 143c0 9 8 16 17 16l147 0 0-32-131 0 0-127z m-209 0l0 127-131 0 0 32 147 0c9 0 17-7 17-16l0-143z m226 320c-4 0-9 1-12 4-3 3-5 7-5 12l0 143 34 0 0-127 130 0 0-32z m-357 0l0 32 131 0 0 127 33 0 0-143c0-4-2-9-5-12-3-3-7-4-12-4z"/>
<glyph glyph-name="volume-up" unicode="&#57383;" d="M55 295l-7-6-39 0c-5 0-9-4-9-9l0-60c0-5 4-9 9-9l39 0 7-7 34-34c2-2 5-3 7-2 3 1 4 4 4 6l0 151c0 3-1 5-4 6-2 1-5 1-7-1z m132-2c3-7 5-13 6-20 1-7 2-14 2-21 0-15-3-29-9-42-5-12-11-22-20-32-2-3-2-7 1-11 1-1 3-2 6-2 2 0 4 1 5 3 43 47 44 118 3 167-1 1-3 2-6 2-2 0-4-1-6-2-3-3-3-8 0-11 8-9 14-20 18-31z m-40 19c-3-3-4-8-1-11 5-6 9-13 12-20 4-10 5-20 5-30 0-10-2-20-6-30-3-7-7-14-13-21-2-3-2-7 1-10 1-2 3-3 6-3 2 0 4 2 6 3 29 35 30 86 1 122-1 1-3 2-5 2-3 0-5 0-6-2z m-23-23c-3-3-4-7-1-11 2-3 4-6 5-10 3-5 4-11 4-17-1-7-2-13-4-18-2-4-4-7-6-11-3-3-2-7 0-10 2-2 4-3 7-2 2 0 4 1 6 3 17 22 17 53 1 75-2 2-4 3-6 3-2 1-5 0-6-2z m359 48l29 0 0-172-29 0z m-199-129l29 0 0-43-29 0z m50 29l28 0 0-72-28 0z m50 43l28 0 0-115-28 0z m49 29l29 0 0-144-29 0z"/>
<glyph glyph-name="volume-off" unicode="&#57384;" d="M138 367l-17-16-99 0c-12 0-22-10-22-22l0-153c0-12 10-22 22-22l99 0 17-16 88-88c4-5 11-6 17-3 6 2 10 8 10 14l0 382c0 7-4 13-10 15-6 3-13 1-17-3z m313-116l56 56c7 7 7 19 0 26-8 7-19 7-27 0l-55-56-56 56c-7 7-19 7-26 0-8-7-8-19 0-26l55-56-55-56c-8-7-8-19 0-26 7-7 19-7 26 0l56 56 55-56c8-7 19-7 27 0 7 7 7 19 0 26z"/>
<glyph glyph-name="group-call" unicode="&#57385;" d="M505 106l-106 0c0 1 0 1 0 2l0 125c0 8-1 17-5 25 1 0 2 0 2 0 1-1 3-1 4-1 14 0 28 5 40 13 1 0 2 1 2 1l20 0c24 0 43-20 44-43l0-119c0-1 0-2-1-3z m-134 0l-110 0c0 1 0 3 0 4l0 131c0 8-2 16-4 23 0 0 0 0 1 0 0 0 1 0 1 0 16 0 30 5 43 13 1 1 1 1 2 1l21 0c25 0 46-20 46-45l0-125c0-1 0-1 0-2z m-137 0l-234 0c0 2 0 3 0 4l0 131c0 27 22 48 48 48l22 0c1 0 2 0 3-1 27-18 62-18 89 0 1 1 2 1 3 1l21 0c27 0 49-21 49-48l0-131c0-1 0-2 0-4z m166 167c-31 0-55 24-55 54 0 30 25 54 55 54 30 0 54-24 55-54 0-30-25-54-55-54z m-141 7c-31 0-57 26-58 57 0 33 26 59 58 59 32 0 58-26 58-59 0-31-26-57-58-57z m-142 11c-33 0-60 27-61 61 0 33 28 61 61 61 34 0 61-28 61-61 0-34-27-61-61-61z"/>
<glyph glyph-name="arrows-ccw" unicode="&#60;" d="M141 148c0 0 60 60 60 60 0 0 0-150 0-150 0 0-142 9-142 9 0 0 45 44 45 44-39 41-59 91-58 148 1 57 21 107 62 148 34 34 75 53 122 59 0 0 2-52 2-52-34-6-63-21-88-45-30-30-45-67-46-109 0-43 14-80 43-112m170 307c0 0 142-9 142-9 0 0-45-44-45-44 39-41 59-91 58-148-1-57-21-107-62-148-32-33-73-53-122-60 0 0-1 53-1 53 33 6 62 21 87 45 30 30 45 67 46 109 0 43-14 80-43 112 0 0-59-60-59-60 0 0-1 150-1 150"/>
<glyph glyph-name="list-view" unicode="&#48;" d="M0 461l75 0 0-78-75 0z m135 0l377 0 0-78-377 0z m-135-166l75 0 0-78-75 0z m135 0l377 0 0-77-377 0z m-135-160l75 0 0-78-75 0z m135 0l377 0 0-78-377 0z"/>
<glyph glyph-name="refresh" unicode="&#70;" d="M436 254l66 0c4 0 8 2 9 6 2 3 1 7-2 10l-104 104c-4 4-10 4-14 0l-104-104c-3-3-3-7-2-10 2-4 5-6 9-6l66 0c-5-77-71-136-148-133-77 4-137 68-136 145 2 77 65 139 142 139 5 0 10 5 10 10l0 57c0 5-5 9-10 9-121 2-220-95-223-216-2-121 94-221 215-224 121-3 222 92 226 213z"/>
<glyph glyph-name="call-1" unicode="&#52;" d="M256 0c-68 0-133 27-181 75-48 48-75 113-75 181 0 68 27 133 75 181 48 48 113 75 181 75 68 0 133-27 181-75 48-48 75-113 75-181 0-68-27-133-75-181-48-48-113-75-181-75z m-38 384c-1 0-1 0-2 0l-20-4c-39-23-40-91-1-158 31-52 74-86 111-86 9 0 19 2 27 7l13 16c3 3 3 7 0 11l-28 35c-3 3-7 5-12 6l0 0-12-1c-4-3-10-4-15-4-14 0-29 13-44 39-12 21-17 38-15 50 2 8 8 14 15 18l6 10c2 4 3 9 1 13l-16 43c-2 3-5 5-8 5z"/>
<glyph glyph-name="client-search" unicode="&#57386;" d="M332 512c-70 0-134-40-164-104-29-63-19-138 26-192l-22-22-21 21-151-151 64-64 150 152-21 21 23 22c60-52 148-57 214-14 67 44 97 126 75 203-23 76-93 128-173 128z m-268-470l-22 22 109 109 21-21z m178 170l180 0c-53-40-127-40-180 0z m30 30c1 33 28 58 60 58 32 0 59-25 60-58z m150-30l0 30c0 50-40 90-90 90-50 0-90-40-90-90l0-30c-52 39-73 107-53 168 21 61 78 103 143 103 64 0 122-42 142-103 21-61 0-129-52-168z m-30 180c0 33-27 60-60 60-33 1-60-26-60-60 0-33 27-60 60-60 33 0 60 27 60 60z m-60-30c-17 0-30 14-30 30 0 17 13 30 30 30 17 0 30-13 30-30 0-16-14-30-30-30z"/>
<glyph glyph-name="bar-code" unicode="&#57387;" d="M61 443l0-137c0-5 4-10 10-10l136 0c5 0 10 5 10 10l0 26c0 6-5 10-10 10-5 0-10-4-10-10l0-16-117 0 0 117 117 0 0-24c0-5 5-10 10-10 5 0 10 5 10 10l0 34c0 5-5 10-10 10l-136 0c-6 0-10-5-10-10z m57-38c-5 0-10-5-10-10l0-41c0-3 1-5 3-7 2-2 5-3 7-3l41 0c6 0 10 5 10 10l0 41c0 5-4 10-10 10z m31-41l-21 0 0 21 21 0z m58-138l-136 0c-6 0-10-4-10-10l0-136c0-6 4-10 10-10l136 0c5 0 10 4 10 10l0 136c0 6-5 10-10 10z m-10-136l-117 0 0 116 117 0z m101 206l136 0c6 0 10 5 10 10l0 137c0 5-4 9-10 10l-136 0c-6 0-10-5-10-10l0-137c0-5 4-10 10-10z m10 137l116 0 0-117-116 0z m136-353l0 136c0 6-4 10-10 10l-136 0c-3 0-5-1-7-3-2-2-3-4-3-7l0-136c0-6 4-10 10-10l136 0c6 0 10 4 10 10z m-20 10l-116 0 0 116 116 0z m10 161c6 0 10 4 10 10 0 5-4 9-10 9l-173 0 0 174c1 3-1 7-4 9-4 2-7 2-11 0-3-2-5-6-4-9l0-174-131 0c-6 0-10-4-10-9 0-6 4-10 10-10l131 0 0-171c0-6 4-10 9-10 6 0 10 4 10 10l0 171z m-316-134l41 0c6 0 10 4 10 10l0 41c0 2-1 5-3 7-2 2-4 3-7 3l-41 0c-5 0-10-5-10-10l0-41c0-3 1-5 3-7 2-2 5-3 7-3z m10 41l21 0 0-21-21 0z m258 247l-41 0c-5 0-9-5-9-10l0-41c0-5 4-10 9-10l41 0c6 0 10 5 10 10l0 41c0 3-1 5-3 7-1 2-4 3-7 3z m-9-41l-22 0 0 21 22 0z m-31-247l41 0c5 0 9 4 9 10l0 41c0 2-1 5-3 7-1 2-4 3-6 3l-41 0c-3 0-6-1-7-3-2-2-3-5-3-7l0-41c0-6 4-10 10-10z m9 41l22 0 0-21-22 0z m-286 112l-1 0c-4 0-6-3-8-6-1-4 0-8 3-10 2-3 6-4 10-3l0 0c5 1 9 7 7 12-1 5-6 9-11 7z m136 110l-1 0c-4-1-8-5-7-10 1-5 5-9 10-9 0 0 1 0 2 0l1 0c5 2 8 7 7 12-2 5-7 8-12 7z m-195 51c2 0 5 1 7 3 2 2 3 4 3 7l0 51 49 0c6 0 10 5 10 10 0 6-4 10-10 10l-59 0c-6 0-10-4-10-10l0-61c0-5 4-10 10-10z m483 81l-59 0c-6 0-10-4-10-10 0-5 4-10 10-10l49 0 0-51c0-5 5-10 10-10 6 0 10 5 10 10l0 61c0 6-4 10-10 10z m-424-483l-49 0 0 51c0 6-5 10-10 10-6 0-10-4-10-10l0-61c0-5 4-9 10-9l59 0c4-1 7 1 9 4 2 3 2 7 0 10-2 4-5 5-9 5z m424 61c-3 0-5-1-7-3-2-1-3-4-3-6l0-52-49 0c-4 0-7-1-9-4-2-4-2-7 0-11 2-3 5-5 9-4l59 0c5 0 10 4 10 9l0 62c0 5-5 9-10 9z"/>
<glyph glyph-name="backward" unicode="&#57388;" d="M472 461l40-39-173-167 173-167-40-39-214 206z m-259 0l41-39-173-167 173-167-41-39-213 206z"/>
</font>
</defs>
</svg>
